<?xml version="1.0" encoding="utf-8"?>
<!-- Generator: Adobe Illustrator 18.0.0, SVG Export Plug-In . SVG Version: 6.00 Build 0)  -->
<!DOCTYPE svg PUBLIC "-//W3C//DTD SVG 1.1//EN" "http://www.w3.org/Graphics/SVG/1.1/DTD/svg11.dtd">
<svg version="1.1" id="Ebene_1" xmlns="http://www.w3.org/2000/svg" xmlns:xlink="http://www.w3.org/1999/xlink" x="0px" y="0px"
	 viewBox="0 0 200 39" enable-background="new 0 0 200 39" xml:space="preserve">
<rect x="0" y="0" fill="#164193" width="58.4" height="39"/>
<rect x="60.3" y="0" fill="#009EE2" width="139.7" height="39"/>
<polygon fill="#FFEC00" points="41.2,13 42.5,12.1 40.9,12.1 40.5,10.6 40,12.1 38.4,12.1 39.7,13 39.2,14.5 40.5,13.6 41.7,14.5 
	"/>
<polygon fill="#FFEC00" points="36.4,8.3 37.6,7.4 36.1,7.4 35.6,5.9 35.1,7.4 33.6,7.4 34.8,8.3 34.3,9.8 35.6,8.9 36.8,9.8 "/>
<polygon fill="#FFEC00" points="30.1,6.6 31.3,5.7 29.8,5.7 29.3,4.3 28.8,5.7 27.3,5.7 28.5,6.6 28,8.1 29.3,7.2 30.5,8.1 "/>
<polygon fill="#FFEC00" points="23.4,8.3 24.7,7.4 23.1,7.4 22.7,5.9 22.2,7.4 20.6,7.4 21.9,8.3 21.4,9.8 22.7,8.9 23.9,9.8 "/>
<polygon fill="#FFEC00" points="18.7,13.2 19.9,12.3 18.4,12.3 17.9,10.8 17.4,12.3 15.9,12.3 17.1,13.2 16.7,14.7 17.9,13.8 
	19.2,14.7 "/>
<polygon fill="#FFEC00" points="17.2,19.7 18.4,18.8 16.9,18.8 16.4,17.3 15.9,18.8 14.4,18.8 15.6,19.7 15.1,21.1 16.4,20.2 
	17.7,21.1 "/>
<polygon fill="#FFEC00" points="18.7,26.2 20,25.3 18.4,25.3 18,23.8 17.5,25.3 15.9,25.3 17.2,26.2 16.7,27.7 18,26.8 19.2,27.7 
	"/>
<polygon fill="#FFEC00" points="23.4,30.8 24.7,29.9 23.1,29.9 22.7,28.4 22.2,29.9 20.6,29.9 21.9,30.8 21.4,32.3 22.7,31.4 
	23.9,32.3 "/>
<polygon fill="#FFEC00" points="30.1,32.6 31.3,31.7 29.8,31.7 29.3,30.2 28.8,31.7 27.3,31.7 28.5,32.6 28,34 29.3,33.1 30.5,34 
	"/>
<polygon fill="#FFEC00" points="36.5,30.8 37.8,29.9 36.2,29.9 35.7,28.4 35.3,29.9 33.7,29.9 35,30.8 34.5,32.3 35.7,31.4 37,32.3 
	"/>
<polygon fill="#FFEC00" points="41.2,26.2 42.5,25.2 40.9,25.2 40.4,23.8 40,25.2 38.4,25.2 39.7,26.2 39.2,27.6 40.4,26.7 
	41.7,27.6 "/>
<polygon fill="#FFEC00" points="42.9,19.6 44.2,18.7 42.6,18.7 42.2,17.2 41.7,18.7 40.1,18.7 41.4,19.6 40.9,21.1 42.2,20.1 
	43.4,21.1 "/>
<polygon fill="#FFFFFF" points="77.2,15.9 71,15.9 71,20.8 78,20.8 78,23.3 67.9,23.3 67.9,6.7 77.6,6.7 77.6,9.2 71,9.2 71,13.4 
	77.2,13.4 "/>
<path fill="#FFFFFF" d="M81.8,23.3V6.7h3.5l4.3,7.1c1.1,1.8,2.1,3.8,2.8,5.6h0c-0.2-2.2-0.3-4.4-0.3-6.9V6.7H95v16.6h-3.1L87.5,16
	c-1.1-1.8-2.2-3.8-3-5.7l-0.1,0c0.1,2.1,0.1,4.3,0.1,7.1v5.9H81.8z"/>
<polygon fill="#FFFFFF" points="109,15.9 102.8,15.9 102.8,20.8 109.8,20.8 109.8,23.3 99.7,23.3 99.7,6.7 109.4,6.7 109.4,9.2 
	102.8,9.2 102.8,13.4 109,13.4 "/>
<path fill="#FFFFFF" d="M113.7,6.9c1.1-0.2,2.8-0.3,4.6-0.3c2.4,0,4,0.4,5.1,1.3c0.9,0.8,1.4,1.9,1.4,3.3c0,2.1-1.5,3.6-3,4.2v0.1
	c1.2,0.4,1.9,1.6,2.3,3.2c0.5,2.1,1,4,1.3,4.6h-3.1c-0.2-0.5-0.6-1.8-1.1-3.9c-0.5-2.2-1.3-2.9-3-2.9h-1.5v6.8h-3V6.9z M116.7,14.2
	h1.8c2,0,3.3-1.1,3.3-2.7c0-1.8-1.3-2.7-3.3-2.7c-1,0-1.6,0.1-1.9,0.1V14.2z"/>
<path fill="#FFFFFF" d="M142.2,22.5c-1.1,0.4-3.1,0.9-5.3,0.9c-2.8,0-4.9-0.7-6.5-2.2c-1.5-1.4-2.3-3.6-2.3-6.1
	c0-5.2,3.7-8.6,9.2-8.6c2,0,3.6,0.4,4.4,0.8L141,9.7c-0.9-0.4-2-0.7-3.8-0.7c-3.5,0-6,2.1-6,6c0,3.8,2.3,6,5.8,6
	c1.1,0,1.9-0.1,2.3-0.3v-4.1h-2.9v-2.4h5.9V22.5z"/>
<path fill="#FFFFFF" d="M67.6,30c0,0.8,0.7,1.1,1.4,1.1c0.5,0,0.9-0.1,1.3-0.2l0.2,0.7c-0.4,0.1-0.9,0.3-1.6,0.3
	c-1.5,0-2.4-0.9-2.4-2.2c0-1.2,0.8-2.3,2.3-2.3c1.5,0,2,1.1,2,2.1c0,0.2,0,0.4,0,0.5H67.6z M69.7,29.3c0-0.4-0.2-1-1-1
	c-0.7,0-1,0.6-1.1,1H69.7z"/>
<polygon fill="#FFFFFF" points="72.9,27.6 72.9,29.2 74.7,29.2 74.7,27.6 75.8,27.6 75.8,31.9 74.7,31.9 74.7,30.1 72.9,30.1 
	72.9,31.9 71.7,31.9 71.7,27.6 "/>
<path fill="#FFFFFF" d="M78,30c0,0.8,0.7,1.1,1.4,1.1c0.5,0,0.9-0.1,1.3-0.2l0.2,0.7c-0.4,0.1-0.9,0.3-1.6,0.3
	c-1.5,0-2.4-0.9-2.4-2.2c0-1.2,0.8-2.3,2.3-2.3c1.5,0,2,1.1,2,2.1c0,0.2,0,0.4,0,0.5H78z M80,29.3c0-0.4-0.2-1-1-1
	c-0.7,0-1,0.6-1.1,1H80z"/>
<path fill="#FFFFFF" d="M82.1,29c0-0.6,0-1,0-1.4h1l0.1,0.7h0c0.3-0.5,0.9-0.8,1.6-0.8c1.1,0,1.9,0.8,1.9,2.2c0,1.6-1.1,2.3-2.1,2.3
	c-0.6,0-1.1-0.2-1.3-0.6h0v2.2h-1.2V29z M83.2,30.1c0,0.1,0,0.2,0,0.3c0.1,0.4,0.5,0.8,1,0.8c0.7,0,1.2-0.6,1.2-1.4
	c0-0.8-0.4-1.4-1.1-1.4c-0.5,0-0.9,0.3-1,0.8c0,0.1,0,0.2,0,0.3V30.1z"/>
<polygon fill="#FFFFFF" points="90.7,27.6 90.7,28.5 88.8,28.5 88.8,31.9 87.7,31.9 87.7,27.6 "/>
<path fill="#FFFFFF" d="M92.6,27.6v1.5c0,0.7,0,1.1-0.1,1.7h0c0.2-0.5,0.4-0.8,0.6-1.3l1.1-2h1.4v4.3h-1.1v-1.5c0-0.7,0-1,0.1-1.8h0
	c-0.2,0.5-0.4,0.8-0.6,1.2c-0.4,0.6-0.8,1.4-1.2,2.1h-1.4v-4.3H92.6z"/>
<path fill="#FFFFFF" d="M100.8,31.9h-1.2v-1.7h-0.4c-0.3,0-0.6,0.1-0.7,0.3c-0.3,0.2-0.4,0.7-0.6,1.1c-0.1,0.1-0.1,0.2-0.2,0.4h-1.3
	c0.1-0.1,0.2-0.3,0.3-0.5c0.2-0.4,0.3-0.9,0.7-1.2c0.1-0.1,0.3-0.2,0.6-0.3v0c-0.6-0.1-1.2-0.4-1.2-1.1c0-0.5,0.3-0.8,0.7-1
	c0.4-0.2,1-0.3,1.6-0.3c0.6,0,1.2,0,1.6,0.1V31.9z M99.6,28.3c-0.2,0-0.3,0-0.6,0c-0.5,0-1,0.2-1,0.6c0,0.4,0.6,0.6,1,0.6
	c0.3,0,0.4,0,0.6,0V28.3z"/>
<path fill="#FFFFFF" d="M104.6,30.3c-0.4,0-0.7-0.3-0.7-0.7s0.3-0.7,0.7-0.7c0.4,0,0.7,0.3,0.7,0.7C105.3,30,105,30.3,104.6,30.3
	L104.6,30.3z"/>
<path fill="#FFFFFF" d="M109.2,29.6c-0.6-0.1-0.9-0.5-0.9-0.9c0-0.6,0.6-1.2,1.9-1.2c0.6,0,1.1,0.1,1.5,0.3l-0.2,0.7
	c-0.2-0.1-0.7-0.3-1.1-0.3c-0.6,0-0.9,0.2-0.9,0.5c0,0.3,0.5,0.5,1.2,0.5h0.5V30h-0.5c-0.7,0-1.3,0.2-1.3,0.6c0,0.4,0.5,0.6,1.1,0.6
	c0.5,0,1-0.2,1.3-0.3l0.2,0.7c-0.4,0.3-1.1,0.4-1.8,0.4c-1,0-2-0.3-2-1.3C108.1,30.1,108.6,29.7,109.2,29.6L109.2,29.6z"/>
<path fill="#FFFFFF" d="M113.4,27.6l0.7,2.2c0.1,0.4,0.2,0.7,0.3,1.1h0c0.4-0.7,1-2,1-2.9v-0.4h1.1c0,0.1,0,0.2,0,0.3
	c0,1.2-0.8,2.7-1.7,4h-1.1l-1.6-4.3H113.4z"/>
<path fill="#FFFFFF" d="M118.2,29.6c-0.6-0.1-0.9-0.5-0.9-0.9c0-0.6,0.6-1.2,1.9-1.2c0.6,0,1.1,0.1,1.5,0.3l-0.2,0.7
	c-0.2-0.1-0.7-0.3-1.1-0.3c-0.6,0-0.9,0.2-0.9,0.5c0,0.3,0.5,0.5,1.2,0.5h0.5V30h-0.5c-0.7,0-1.3,0.2-1.3,0.6c0,0.4,0.5,0.6,1.1,0.6
	c0.5,0,1-0.2,1.3-0.3l0.2,0.7c-0.4,0.3-1.1,0.4-1.8,0.4c-1,0-2-0.3-2-1.3C117.1,30.1,117.6,29.7,118.2,29.6L118.2,29.6z"/>
<path fill="#FFFFFF" d="M122.9,31.5v0.6c0,0.5,0,1.2,0.1,1.6h-1.1c-0.1-0.2-0.1-0.9-0.1-1.5v-2c0-1.2,0.4-1.7,0.8-2.1
	c0.4-0.3,0.9-0.6,1.6-0.6c1.3,0,2.2,0.9,2.2,2.2c0,1.5-1.1,2.3-2.1,2.3C123.6,32,123.1,31.8,122.9,31.5L122.9,31.5z M122.9,30.2
	c0,0.1,0,0.2,0,0.3c0.1,0.4,0.5,0.7,1,0.7c0.7,0,1.2-0.6,1.2-1.4c0-0.8-0.4-1.3-1.1-1.3c-0.6,0-1.1,0.5-1.1,1.5V30.2z"/>
<path fill="#FFFFFF" d="M128.3,33.6c0-0.8,0-1.6-0.2-2.5c-0.3-1.4-1.1-2.8-1.6-3.6h1.3c0.4,0.5,1,1.9,1.2,3.1h0
	c0.4-0.7,0.9-1.8,0.9-2.8c0-0.2,0-0.3,0-0.3h1.1c0,0.1,0,0.2,0,0.3c0,1.1-0.7,2.5-1.6,3.8c0,0.1-0.1,0.1-0.1,0.2c0,0.4,0,1.1,0,1.7
	H128.3z"/>
<path fill="#FFFFFF" d="M132.6,29.6c-0.5-0.1-0.9-0.5-0.9-0.9c0-0.6,0.6-1.2,1.9-1.2c0.6,0,1.1,0.1,1.5,0.3l-0.2,0.7
	c-0.2-0.1-0.7-0.3-1.1-0.3c-0.6,0-0.9,0.2-0.9,0.5c0,0.3,0.5,0.5,1.2,0.5h0.5V30h-0.5c-0.7,0-1.3,0.2-1.3,0.6c0,0.4,0.5,0.6,1.1,0.6
	c0.5,0,1-0.2,1.3-0.3l0.2,0.7c-0.4,0.3-1.1,0.4-1.8,0.4c-1,0-2-0.3-2-1.3C131.5,30.1,132,29.7,132.6,29.6L132.6,29.6z"/>
<path fill="#FFFFFF" d="M137.3,30.7c0,0.4,0.1,0.5,0.4,0.5l-0.1,0.8c-0.1,0-0.3,0.1-0.5,0.1c-0.6,0-1-0.2-1-1.2v-3.2h1.2V30.7z"/>
<path fill="#FFFFFF" d="M142.9,27.6c-0.1,0.6-0.1,1.9-0.1,2.9c0,0.5,0.2,0.7,0.4,0.6l-0.1,0.8c-0.1,0-0.3,0.1-0.4,0.1
	c-0.5,0-0.8-0.3-0.9-0.8h0c-0.3,0.5-0.9,0.8-1.5,0.8c-1.1,0-1.9-0.8-1.9-2.2c0-1.4,1-2.3,2.1-2.3c0.6,0,1.1,0.3,1.3,0.7h0
	c0-0.3,0.1-0.5,0.1-0.7H142.9z M139.6,29.8c0,0.7,0.4,1.3,1,1.3c0.5,0,0.9-0.4,1-0.9c0-0.2,0-0.3,0-0.5c0-0.2,0-0.3,0-0.4
	c-0.1-0.5-0.5-1-1-1C140,28.3,139.6,29,139.6,29.8L139.6,29.8z"/>
<path fill="#FFFFFF" d="M148.5,10.2c0-4.7,3.8-8.5,8.5-8.5c4.7,0,8.5,3.8,8.5,8.5c0,4.7-3.8,8.5-8.5,8.5
	C152.3,18.6,148.5,14.9,148.5,10.2"/>
<path fill="#009EE2" d="M156.4,13.4v-2.9l-2.2-4.1h1.5l0.8,1.8c0.2,0.5,0.4,0.9,0.6,1.4h0c0.2-0.4,0.4-0.9,0.6-1.4l0.8-1.8h1.4
	l-2.3,4v2.9H156.4z"/>
<path fill="#FFFFFF" d="M168,10.2c0-4.7,3.8-8.5,8.5-8.5c4.7,0,8.5,3.8,8.5,8.5c0,4.7-3.8,8.5-8.5,8.5C171.8,18.6,168,14.9,168,10.2
	"/>
<path fill="#FFFFFF" d="M148.5,28.9c0-4.7,3.8-8.5,8.5-8.5c4.7,0,8.5,3.8,8.5,8.5c0,4.7-3.8,8.5-8.5,8.5
	C152.3,37.4,148.5,33.6,148.5,28.9"/>
<rect x="153.8" y="25.1" fill="#009EE2" width="1.3" height="7"/>
<polygon fill="#009EE2" points="160.4,29 157.8,29 157.8,31.1 160.7,31.1 160.7,32.1 156.5,32.1 156.5,25.1 160.6,25.1 160.6,26.2 
	157.8,26.2 157.8,28 160.4,28 "/>
<path fill="#FFFFFF" d="M168,28.9c0-4.7,3.8-8.5,8.5-8.5c4.7,0,8.5,3.8,8.5,8.5c0,4.7-3.8,8.5-8.5,8.5C171.8,37.4,168,33.6,168,28.9
	"/>
<rect x="170.6" y="6.4" fill="#009EE2" width="1.3" height="7"/>
<path fill="#009EE2" d="M174.7,6.4h1.3v4.5c0,1.9-0.9,2.6-2.3,2.6c-0.4,0-0.8-0.1-1.1-0.2l0.2-1c0.2,0.1,0.5,0.1,0.8,0.1
	c0.7,0,1.2-0.3,1.2-1.5V6.4z"/>
<path fill="#009EE2" d="M178.8,11.4l-0.6,2h-1.3l2.2-7h1.6l2.3,7h-1.4l-0.6-2H178.8z M180.8,10.4l-0.5-1.7c-0.1-0.4-0.2-0.9-0.4-1.3
	h0c-0.1,0.4-0.2,0.9-0.3,1.3l-0.5,1.7H180.8z"/>
<rect x="172.6" y="25.1" fill="#009EE2" width="1.3" height="7"/>
<path fill="#009EE2" d="M176.7,30.1l-0.6,2h-1.3l2.2-7h1.6l2.3,7h-1.4l-0.6-2H176.7z M178.7,29.2l-0.6-1.7c-0.1-0.4-0.2-0.9-0.4-1.3
	h0c-0.1,0.4-0.2,0.9-0.3,1.3l-0.5,1.7H178.7z"/>
<g>
</g>
<g>
</g>
<g>
</g>
<g>
</g>
<g>
</g>
<g>
</g>
<g>
</g>
<g>
</g>
<g>
</g>
<g>
</g>
<g>
</g>
<g>
</g>
<g>
</g>
<g>
</g>
<g>
</g>
</svg>
