<?xml version="1.0" standalone="no"?>
<!DOCTYPE svg PUBLIC "-//W3C//DTD SVG 1.1//EN" "http://www.w3.org/Graphics/SVG/1.1/DTD/svg11.dtd" >
<svg xmlns="http://www.w3.org/2000/svg">
<metadata></metadata>
<defs>
<font id="carlitoregular" horiz-adv-x="1020" >
<font-face units-per-em="2048" ascent="1536" descent="-512" />
<missing-glyph horiz-adv-x="463" />
<glyph unicode="&#xfb01;" horiz-adv-x="1084" d="M24 0zM24 888v72h151v127q0 160 72 242.5t202 82.5q23 0 41.5 -2t35.5 -8v-96q0 -15 -14 -19t-38 -4q-66 0 -97.5 -45.5t-31.5 -149.5v-128h581v-960h-176v832h-399v-832h-176v831l-104 13q-21 2 -34 13t-13 31zM715 1291q0 26 10 48.5t26.5 39.5t38.5 27t47 10t47.5 -10 t40 -27t27.5 -39.5t10 -48.5q0 -25 -10 -47.5t-27.5 -39t-40 -26.5t-47.5 -10t-47 10t-38.5 26.5t-26.5 39t-10 47.5z" />
<glyph unicode="&#xfb02;" horiz-adv-x="1084" d="M23 888v72h143v51q0 81 23.5 153.5t71 127t118.5 86.5t167 32q71 0 136 -6t128 -7h118v-1397h-175v1274q-48 2 -97 5t-84 3q-113 0 -174.5 -71.5t-61.5 -199.5v-51h235v-128h-229v-832h-176v831l-96 13q-21 2 -34 13t-13 31z" />
<glyph unicode="&#xfb03;" horiz-adv-x="1654" d="M24 0zM24 888v72h147v78q0 84 23 149.5t65.5 110t103.5 68t136 23.5q31 0 61 -5t57 -14l-5 -88q-2 -23 -24 -25.5t-60 -2.5q-42 0 -76.5 -11t-59 -37t-38 -68.5t-13.5 -104.5v-73h417v127q0 160 71.5 242.5t199.5 82.5q23 0 41 -2t34 -8v-96q0 -15 -13.5 -19t-37.5 -4 q-64 0 -94 -45.5t-30 -149.5v-128h571v-960h-176v832h-390v-832h-176v832h-411v-832h-176v831l-100 13q-21 2 -34 13t-13 31zM1290 1291q0 26 10 48.5t26.5 39.5t38.5 27t47 10t47.5 -10t40 -27t27.5 -39.5t10 -48.5q0 -25 -10 -47.5t-27.5 -39t-40 -26.5t-47.5 -10t-47 10 t-38.5 26.5t-26.5 39t-10 47.5z" />
<glyph unicode="&#xfb04;" horiz-adv-x="1654" d="M24 888v72h143v78q0 84 22.5 149.5t64 110t101 68t133.5 23.5q59 0 114 -19l-4 -88q-1 -12 -7 -17.5t-16.5 -8t-25 -2.5h-32.5q-41 0 -74 -11t-56.5 -37t-36.5 -68.5t-13 -104.5v-73h402v51q0 81 23 153.5t70 127t118 86.5t166 32q72 0 136.5 -6t127.5 -7h119v-1397h-175 v1274q-48 2 -97 5t-84 3q-112 0 -173 -71.5t-61 -199.5v-51h257v-128h-251v-832h-176v832h-396v-832h-176v831l-97 13q-20 2 -33 13t-13 31z" />
<glyph horiz-adv-x="0" d="M-17 -330q0 7 5 12t12 5q8 0 13 -5t5 -12q0 -8 -5 -13t-13 -5q-7 0 -12 5t-5 13z" />
<glyph horiz-adv-x="0" d="M-17 -330q0 7 5 12t12 5q8 0 13 -5t5 -12q0 -8 -5 -13t-13 -5q-7 0 -12 5t-5 13z" />
<glyph unicode="&#xd;" horiz-adv-x="0" />
<glyph unicode=" "  horiz-adv-x="463" />
<glyph unicode="&#x09;" horiz-adv-x="463" />
<glyph unicode="&#xa0;" horiz-adv-x="463" />
<glyph unicode="!" horiz-adv-x="667" d="M211 107q0 25 9.5 47.5t26 39.5t39 26.5t48.5 9.5q25 0 47.5 -9.5t39 -26.5t26 -39.5t9.5 -47.5q0 -26 -9.5 -48t-26 -38.5t-39 -25.5t-47.5 -9q-26 0 -48.5 9t-39 25.5t-26 38.5t-9.5 48zM252 831v552h168v-552q0 -44 -1.5 -85t-4.5 -83t-7.5 -86t-10.5 -94h-119 q-5 50 -9.5 94t-8 86t-5.5 83t-2 85z" />
<glyph unicode="&#x22;" horiz-adv-x="821" d="M178 888zM178 1103v280h152v-280l-17 -149q-3 -31 -16 -48.5t-44 -17.5q-26 0 -40.5 17t-17.5 49zM541 1103v280h152v-280l-17 -149q-3 -31 -16 -48.5t-44 -17.5q-26 0 -40.5 17t-17.5 49z" />
<glyph unicode="#" d="M50 480l8 56h175l54 312h-199l13 73q5 29 22.5 42.5t55.5 13.5h125l62 344q5 29 26.5 45.5t50.5 16.5h79l-73 -406h206l73 406h78q28 0 44.5 -18t11.5 -47l-62 -341h185l-13 -74q-5 -29 -23 -42t-56 -13h-110l-55 -312h148q27 0 39.5 -16t6.5 -56l-8 -56h-203l-73 -408 h-79q-26 0 -42.5 21.5t-10.5 53.5l60 333h-205l-59 -341q-7 -36 -29.5 -51.5t-51.5 -15.5h-78l73 408h-121q-27 0 -39 16t-6 56zM378 536h205l55 312h-206z" />
<glyph unicode="$" horiz-adv-x="1038" d="M116 135l38 59q10 15 22 22.5t30 7.5q13 0 32.5 -14t48.5 -32t69.5 -35.5t96.5 -24.5l26 361q-58 15 -115 35.5t-102 54.5t-72.5 84.5t-27.5 127.5q0 55 22.5 108.5t67.5 96.5t113 71t159 33l15 204h101l-15 -207q84 -11 153 -43t117 -80l-40 -65q-8 -12 -16.5 -19.5 t-22.5 -7.5q-12 0 -28.5 10.5t-40 24.5t-56 28t-76.5 20l-24 -340q59 -17 117 -37.5t104.5 -53t75 -82t28.5 -122.5q0 -68 -26.5 -127t-75.5 -104.5t-117 -74t-152 -34.5l-15 -208h-102l15 210q-101 11 -185.5 51t-141.5 102zM325 795q0 -31 12.5 -54.5t35 -41t53 -31 t65.5 -24.5l23 313q-51 -5 -87 -19.5t-58.5 -36.5t-33 -49t-10.5 -57zM555 117q53 4 92 19.5t64.5 39t38 54t12.5 65.5q0 34 -14.5 58.5t-39 42.5t-58 31.5t-71.5 24.5z" />
<glyph unicode="%" horiz-adv-x="1464" d="M66 1049q0 83 22.5 148t62 109.5t94 67.5t117.5 23t117.5 -23t94.5 -67.5t62.5 -109.5t22.5 -148q0 -81 -24 -144.5t-65 -108t-95 -67.5t-113 -23q-63 0 -117.5 23t-94 67.5t-62 108t-22.5 144.5zM142 0l987 1323q17 29 39.5 44.5t56.5 15.5h77l-992 -1331 q-18 -31 -41 -41.5t-52 -10.5h-75zM204 1049q0 -62 12 -105.5t33.5 -70.5t50.5 -39t62 -12t62.5 12t51 39t34 70.5t12.5 105.5q0 64 -12.5 108t-34 72t-51 40.5t-62.5 12.5t-62 -12.5t-50.5 -40.5t-33.5 -72t-12 -108zM804 327q0 83 22.5 147.5t62.5 109t94.5 68t117.5 23.5 t117.5 -23.5t94 -68t62.5 -109t23 -147.5q0 -81 -24 -145t-65 -108.5t-95 -67.5t-113 -23q-63 0 -117.5 23t-94.5 67.5t-62.5 108.5t-22.5 145zM942 327q0 -63 12.5 -106.5t34 -70.5t50.5 -39t62 -12t62 12t51 39t34.5 70.5t12.5 106.5t-12.5 107.5t-34.5 72t-51 40 t-62 12.5t-62 -12.5t-50.5 -40t-34 -72t-12.5 -107.5z" />
<glyph unicode="&#x26;" horiz-adv-x="1397" d="M83 369q0 67 23.5 127.5t64.5 111.5t98 92t124 69q-61 75 -89.5 145t-28.5 145q0 70 26.5 132t76 108.5t120 73t158.5 26.5q79 0 143.5 -24.5t111.5 -65.5t74.5 -94.5t30.5 -111.5l-109 -22q-16 -3 -29 4t-19 26q-8 25 -23 52t-40 49t-59.5 36.5t-80.5 14.5 q-50 0 -90 -15.5t-68 -43t-43.5 -64.5t-15.5 -80q0 -66 33.5 -126.5t108.5 -133.5l409 -405q39 66 61.5 137t30.5 143q3 40 40 40h107q-1 -112 -36 -219.5t-100 -201.5l298 -294h-170q-29 0 -46.5 7t-38.5 28l-145 141q-93 -88 -215 -139.5t-268 -51.5q-79 0 -155.5 26 t-136.5 75.5t-96.5 121t-36.5 161.5zM262 383q0 -62 24 -109.5t63 -80t88.5 -49.5t100.5 -17q111 0 199.5 39.5t155.5 105.5l-419 409q-106 -54 -159 -130.5t-53 -167.5z" />
<glyph unicode="'" horiz-adv-x="452" d="M150 1103v280h152v-280l-17 -149q-3 -31 -16 -48.5t-44 -17.5q-26 0 -40.5 17t-17.5 49z" />
<glyph unicode="(" horiz-adv-x="621" d="M150 607q0 117 14.5 229t46 222t82 219t122.5 220l78 -47q15 -10 23 -26.5t-8 -45.5q-100 -176 -152.5 -370.5t-52.5 -400.5q0 -207 52.5 -401.5t152.5 -370.5q16 -29 8 -45.5t-23 -25.5l-78 -48q-72 111 -122.5 220.5t-82 219t-46 222t-14.5 229.5z" />
<glyph unicode=")" horiz-adv-x="621" d="M103.5 -191q1.5 11 9.5 26q100 176 152.5 370.5t52.5 401.5q0 206 -52.5 400.5t-152.5 370.5q-8 15 -9.5 26t1.5 20t9 15t14 11l78 48q72 -112 122.5 -221t82 -219t46 -222t14.5 -229t-14.5 -229.5t-46 -222t-82 -219t-122.5 -220.5l-78 48q-8 4 -14 10.5t-9 15 t-1.5 19.5z" />
<glyph unicode="*" d="M217 1264l43 74l166 -97q34 -20 55 -51q-16 33 -16 74v190h87v-189q0 -20 -2.5 -36.5t-9.5 -32.5q20 25 53 45l165 96l42 -74l-164 -96q-17 -10 -32.5 -16.5t-32.5 -8.5q17 -2 32.5 -7.5t32.5 -15.5l165 -97l-42 -74l-166 97q-17 10 -30.5 20.5t-24.5 24.5q14 -33 14 -68 v-190h-87v189q0 18 2.5 34.5t9.5 31.5q-10 -14 -22.5 -23.5t-28.5 -18.5l-165 -96l-43 74l165 96q17 10 33.5 15.5t33.5 7.5q-32 3 -67 24z" />
<glyph unicode="+" d="M46 581v133h390v412h144v-412h392v-133h-392v-413h-144v413h-390z" />
<glyph unicode="," horiz-adv-x="511" d="M140 120q0 22 8.5 42t23.5 35t36.5 24t47.5 9q30 0 52.5 -11t37.5 -29.5t22.5 -44t7.5 -54.5q0 -43 -12.5 -90t-36 -93t-57.5 -89.5t-78 -80.5l-30 28q-13 12 -13 28q0 12 14 26q9 10 24 28t30.5 41t28.5 51t19 60h-11q-51 0 -82.5 34t-31.5 86z" />
<glyph unicode="-" horiz-adv-x="627" d="M75 504v149h478v-149h-478z" />
<glyph unicode="." horiz-adv-x="517" d="M134 0zM134 107q0 26 10 48.5t26.5 39.5t38.5 27t47 10t47.5 -10t40 -27t27.5 -39.5t10 -48.5q0 -25 -10 -47.5t-27.5 -39t-40 -26.5t-47.5 -10t-47 10t-38.5 26.5t-26.5 39t-10 47.5z" />
<glyph unicode="/" horiz-adv-x="791" d="M-12 -87l646 1445q25 64 92 64h74l-641 -1442q-14 -34 -41 -50.5t-56 -16.5h-74z" />
<glyph unicode="0" horiz-adv-x="1038" d="M53 657q0 172 36 298.5t98.5 209.5t147.5 123.5t183 40.5t183.5 -40.5t148.5 -123.5t99 -209.5t36 -298.5t-36 -298.5t-99 -209t-148.5 -123t-183.5 -40.5t-183 40.5t-147.5 123t-98.5 209t-36 298.5zM226 657q0 -150 24 -251.5t64.5 -163.5t93 -88.5t110.5 -26.5 t111 26.5t93.5 88.5t64.5 163.5t24 251.5t-24 251.5t-64.5 163.5t-93.5 89t-111 27t-110.5 -27t-93 -89t-64.5 -163.5t-24 -251.5z" />
<glyph unicode="1" horiz-adv-x="1038" d="M177 979l383 339h136v-1190h250v-128h-691v128h273v887q0 39 3 81l-223 -196q-24 -20 -46.5 -13.5t-31.5 19.5z" />
<glyph unicode="2" horiz-adv-x="1038" d="M92 0v57q0 17 7 36.5t24 35.5l407 420q52 53 93.5 102t70.5 98.5t45 100.5t16 108t-17.5 100t-47.5 71.5t-71 42.5t-89 14q-47 0 -87 -14.5t-71 -40t-53 -61t-32 -77.5q-8 -34 -27.5 -44.5t-54.5 -5.5l-87 14q12 91 48.5 160.5t91.5 116.5t126.5 71t154.5 24t154 -25 t123 -72t81.5 -115t29.5 -155q0 -73 -21.5 -135.5t-58 -119.5t-84.5 -111.5t-101 -109.5l-337 -351q38 11 76.5 17t73.5 6h417q27 0 43 -15.5t16 -41.5v-101h-859zM92 0z" />
<glyph unicode="3" horiz-adv-x="1038" d="M95 0zM95 327l72 31q29 12 55.5 7t38.5 -30q12 -26 29.5 -61.5t47.5 -68t76 -55t115 -22.5q66 0 115 22.5t82 57.5t49.5 79t16.5 86q0 52 -13 96.5t-49 76t-99.5 49.5t-163.5 18v121q82 1 139 18.5t93 47.5t52 72t16 92q0 56 -16.5 97.5t-46 69.5t-70 41.5t-88.5 13.5 t-87.5 -14.5t-70.5 -40t-52.5 -61t-32.5 -77.5q-8 -34 -27.5 -44.5t-54.5 -5.5l-88 14q13 91 49 160.5t91.5 116.5t127 71t154.5 24t152 -24t119 -68t77.5 -106t27.5 -138q0 -63 -15.5 -112t-44.5 -86t-70 -62.5t-92 -41.5q125 -34 188 -113.5t63 -199.5q0 -91 -34 -163.5 t-92.5 -123.5t-136.5 -78t-166 -27q-102 0 -174 25.5t-123 71.5t-84 108t-55 136z" />
<glyph unicode="4" horiz-adv-x="1038" d="M35 0zM35 466l622 849h157v-840h190v-95q0 -15 -9.5 -25.5t-27.5 -10.5h-153v-344h-147v344h-565q-20 0 -33 10.5t-17 27.5zM214 475h453v536q0 48 6 105z" />
<glyph unicode="5" horiz-adv-x="1038" d="M93 0zM93 125l51 71q18 24 45 24q18 0 40.5 -14t54.5 -31.5t75 -31.5t103 -14q66 0 119 22t90 62t57 96.5t20 126.5q0 61 -17.5 110t-52 84t-86.5 54t-121 19q-97 0 -206 -36l-104 32l104 615h612v-73q0 -35 -22.5 -58t-75.5 -23h-397l-57 -340q50 11 94.5 16t86.5 5 q100 0 177 -30.5t129 -83.5t78.5 -125.5t26.5 -157.5q0 -105 -35.5 -189.5t-98 -144.5t-147.5 -92t-183 -32q-57 0 -109 11.5t-98 30.5t-84.5 44t-68.5 53z" />
<glyph unicode="6" horiz-adv-x="1038" d="M92 458q0 91 37.5 193t117.5 220l322 470q13 18 37.5 30t56.5 12h156l-382 -517q-15 -21 -29.5 -40.5t-27.5 -38.5q43 29 95 45t112 16q76 0 145 -27t121.5 -79.5t83 -129.5t30.5 -176q0 -95 -32.5 -177.5t-91 -143.5t-140 -95.5t-180.5 -34.5t-178.5 33.5t-135.5 95 t-86.5 149t-30.5 195.5zM262 427q0 -66 17 -120.5t50 -93.5t81 -61t110 -22q61 0 111 22.5t85.5 61.5t55 92.5t19.5 116.5q0 68 -19 122t-53.5 91.5t-83 57.5t-107.5 20q-61 0 -110.5 -23.5t-84 -63t-53 -91.5t-18.5 -109z" />
<glyph unicode="7" horiz-adv-x="1038" d="M98 0zM98 1200v114h874v-74q0 -32 -7 -52.5t-14 -34.5l-525 -1094q-12 -24 -34 -41.5t-57 -17.5h-122l534 1079q24 47 54 81h-662q-17 0 -29 12t-12 28z" />
<glyph unicode="8" horiz-adv-x="1038" d="M82 379q0 134 63.5 220t185.5 122q-102 40 -153.5 121t-51.5 193q0 76 28.5 142.5t80 116t124 77.5t160.5 28t160.5 -28t124 -77.5t80 -116t28.5 -142.5q0 -112 -52 -193t-154 -121q123 -36 186.5 -122t63.5 -220q0 -90 -32 -163t-89.5 -124.5t-138 -79t-177.5 -27.5 t-177.5 27.5t-138 79t-89.5 124.5t-32 163zM263 382q0 -57 17 -104.5t50 -81.5t80.5 -53t108.5 -19q60 0 107.5 19t80.5 53t50 81.5t17 104.5q0 71 -20.5 121t-55 82t-81 47t-98.5 15q-53 0 -99.5 -15t-81 -47t-55 -82t-20.5 -121zM298 1032q0 -47 12 -91.5t38 -78.5 t68.5 -54.5t102.5 -20.5t102.5 20.5t68.5 54.5t38 78.5t12 91.5q0 48 -14 90t-41.5 73.5t-69 50t-96.5 18.5t-96.5 -18.5t-69 -50t-41.5 -73.5t-14 -90z" />
<glyph unicode="9" horiz-adv-x="1038" d="M131 0zM131 916q0 86 31.5 161.5t88 131.5t135 88t172.5 32q93 0 168.5 -31t129.5 -87.5t83 -135t29 -172.5q0 -57 -10.5 -107.5t-29.5 -99.5t-47 -97t-62 -99l-309 -461q-12 -17 -34.5 -28t-51.5 -11h-154l390 523q19 26 35.5 49t31.5 46q-48 -38 -108.5 -58.5 t-128.5 -20.5q-72 0 -137 25t-114.5 73t-78.5 118t-29 161zM299 928q0 -125 66 -193t181 -68q63 0 111.5 21t81.5 56.5t50.5 82t17.5 96.5q0 61 -18.5 110.5t-52 84.5t-79.5 53.5t-101 18.5q-58 0 -105.5 -19.5t-81 -54t-52 -83t-18.5 -105.5z" />
<glyph unicode=":" horiz-adv-x="548" d="M143 0zM143 785q0 26 10 48.5t26.5 39.5t38.5 27t47 10t47.5 -10t40 -27t27.5 -39.5t10 -48.5q0 -25 -10 -47.5t-27.5 -39t-40 -26.5t-47.5 -10t-47 10t-38.5 26.5t-26.5 39t-10 47.5zM149 107q0 26 10 48.5t26.5 39.5t38.5 27t47 10t47.5 -10t40 -27t27.5 -39.5 t10 -48.5q0 -25 -10 -47.5t-27.5 -39t-40 -26.5t-47.5 -10t-47 10t-38.5 26.5t-26.5 39t-10 47.5z" />
<glyph unicode=";" horiz-adv-x="548" d="M149 0zM149 785q0 26 10 48.5t26.5 39.5t38.5 27t47 10t47.5 -10t40 -27t27.5 -39.5t10 -48.5q0 -25 -10 -47.5t-27.5 -39t-40 -26.5t-47.5 -10t-47 10t-38.5 26.5t-26.5 39t-10 47.5zM155 120q0 22 8.5 42t23.5 35t36.5 24t47.5 9q30 0 52.5 -11t37.5 -29.5t22.5 -44 t7.5 -54.5q0 -43 -12.5 -90t-36 -93t-57.5 -89.5t-78 -80.5l-30 28q-13 12 -13 28q0 12 14 26q9 10 24 28t30.5 41t28.5 51t19 60h-11q-51 0 -82.5 34t-31.5 86z" />
<glyph unicode="&#x3c;" d="M93 613v72l747 388v-125q0 -16 -7.5 -28.5t-27.5 -22.5l-428 -217q-38 -19 -88 -31q49 -10 88 -30l429 -218q19 -10 26.5 -22.5t7.5 -28.5v-125z" />
<glyph unicode="=" d="M94 422v132h831v-132h-831zM94 746v133h831v-133h-831z" />
<glyph unicode="&#x3e;" d="M181 225v125q0 33 34 51l429 218q37 19 87 30q-50 12 -88 31l-427 218q-19 10 -27 22t-8 28v125l746 -388v-72z" />
<glyph unicode="?" horiz-adv-x="949" d="M123 1260q30 28 66.5 53t79.5 44t93 30.5t108 11.5q77 0 142.5 -22t113 -63t74.5 -99t27 -130q0 -74 -22 -127t-55 -93t-72.5 -69.5t-74 -55.5t-59 -51.5t-28.5 -57.5l-18 -148h-120l-13 160q-4 43 17 76t54 61.5t72.5 56t74 61t57.5 76t23 101.5q0 42 -16 75t-44.5 56.5 t-66.5 36t-81 12.5q-59 0 -100.5 -14t-70.5 -31.5t-47 -31.5t-30 -14q-24 0 -38 22zM295 107q0 25 9.5 47.5t26 39.5t39 26.5t48.5 9.5q25 0 47.5 -9.5t39 -26.5t26 -39.5t9.5 -47.5q0 -26 -9.5 -48t-26 -38.5t-39 -25.5t-47.5 -9q-26 0 -48.5 9t-39 25.5t-26 38.5t-9.5 48z " />
<glyph unicode="@" horiz-adv-x="1831" d="M204 549q0 105 26.5 202.5t74.5 182.5t116 154.5t151 119.5t179 77.5t200 27.5q134 0 257 -43.5t217.5 -126.5t151 -204t56.5 -275q0 -104 -29.5 -193t-81.5 -154t-122 -101.5t-152 -36.5q-74 0 -121.5 36t-61.5 111q-56 -77 -121.5 -110.5t-140.5 -33.5q-57 0 -100 20 t-71.5 55t-42.5 83.5t-14 104.5q0 55 14 111t41.5 108t69 97.5t96 79t122.5 53t149 19.5q65 0 114 -10t93 -30l-90 -348q-19 -73 -18.5 -118.5t14.5 -71.5t39 -35.5t55 -9.5q46 0 88.5 27t74 76.5t50.5 118t19 152.5q0 133 -42.5 233t-117 166.5t-176 100t-219.5 33.5 q-129 0 -241.5 -49t-196.5 -136t-132 -205.5t-48 -257.5q0 -164 51.5 -288t140.5 -207.5t209 -126t258 -42.5q147 0 259.5 31.5t193.5 80.5q20 12 34.5 7t21.5 -22l25 -65q-103 -68 -235.5 -108t-298.5 -40q-168 0 -312 53t-249.5 153.5t-166 245.5t-60.5 328zM712 449 q0 -69 31.5 -110.5t94.5 -41.5q29 0 59.5 9.5t58 33.5t51.5 65t40 103l73 284q-36 9 -81 9q-71 0 -131 -30t-103.5 -79.5t-68 -113t-24.5 -129.5z" />
<glyph unicode="A" horiz-adv-x="1185" d="M8 0l493 1314h185l492 -1314h-141q-24 0 -38.5 12t-22.5 30l-112 316h-542l-111 -315q-6 -17 -22.5 -30t-39.5 -13h-141zM368 488h450l-186 529q-10 24 -20 56t-19 69q-10 -38 -20 -70t-19 -56z" />
<glyph unicode="B" horiz-adv-x="1114" d="M144 0v1314h401q116 0 199.5 -23.5t137 -68t78.5 -108t25 -143.5q0 -48 -14.5 -93t-43.5 -83t-73 -69t-104 -50q137 -27 206.5 -102.5t69.5 -198.5q0 -84 -29 -153t-85 -118.5t-137.5 -76.5t-186.5 -27h-444zM326 144h259q69 0 118.5 17.5t81 48.5t46 74.5t14.5 94.5 q0 101 -63.5 160t-196.5 59h-259v-454zM326 726h212q67 0 117 16.5t83 45.5t49.5 70t16.5 91q0 115 -62.5 168.5t-196.5 53.5h-219v-445z" />
<glyph unicode="C" horiz-adv-x="1092" d="M67 657q0 149 42 272.5t118 212.5t182 138t234 49q127 0 223.5 -45t168.5 -122l-60 -84q-6 -9 -15 -15t-23 -6q-17 0 -37.5 18t-53.5 39.5t-82 39.5t-122 18q-86 0 -157.5 -35t-123 -101.5t-80 -162t-28.5 -216.5q0 -122 30 -218t82 -162t122.5 -101t151.5 -35 q50 0 89.5 7t73 21.5t63 37t58.5 53.5q16 14 31 14q14 0 26 -12l72 -78q-71 -94 -175 -146t-249 -52q-128 0 -231.5 49t-177 137.5t-113 212t-39.5 272.5z" />
<glyph unicode="D" horiz-adv-x="1260" d="M139 0v1314h454q134 0 244.5 -47.5t189 -133.5t122 -207.5t43.5 -268.5q0 -148 -43.5 -269t-122 -207.5t-189 -133.5t-244.5 -47h-454zM322 147h271q94 0 170 34.5t130 100t83 160.5t29 215t-29 214.5t-83 160.5t-130 100.5t-170 34.5h-271v-1020z" />
<glyph unicode="E" horiz-adv-x="1000" d="M145 0v1314h768v-148h-585v-431h471v-143h-471v-444h586l-1 -148h-768z" />
<glyph unicode="F" horiz-adv-x="941" d="M138 0v1314h744v-148h-561v-455h477v-148h-477v-563h-183z" />
<glyph unicode="G" horiz-adv-x="1292" d="M77 657q0 150 45.5 273.5t130 212t204.5 137.5t269 49q76 0 140.5 -11.5t119.5 -33t101.5 -52.5t86.5 -69l-51 -82q-12 -20 -32 -25t-43 9q-23 13 -50.5 31.5t-65.5 35t-90 28.5t-123 12q-104 0 -188.5 -36t-144 -103t-91.5 -162.5t-32 -213.5q0 -123 33.5 -220.5 t96 -165t150.5 -103t197 -35.5q84 0 150 19.5t130 54.5v288h-189q-18 0 -29 10t-11 25v103h394v-506q-96 -71 -204.5 -106t-235.5 -35q-153 0 -276.5 49t-210.5 137.5t-134 212t-47 272.5z" />
<glyph unicode="H" horiz-adv-x="1276" d="M140 0v1314h183v-585h630v585h183v-1314h-183v596h-630v-596h-183z" />
<glyph unicode="I" horiz-adv-x="516" d="M167 0v1314h182v-1314h-182z" />
<glyph unicode="J" horiz-adv-x="653" d="M34 10q2 28 4.5 55t5.5 53q2 15 11.5 25t28.5 10q13 0 33.5 -7.5t54.5 -7.5q90 0 137 74t47 239v863h182v-859q0 -110 -22 -197t-66 -147.5t-109 -92.5t-150 -32q-39 0 -77 5.5t-80 18.5z" />
<glyph unicode="K" horiz-adv-x="1064" d="M124 0v1314h182v-574h52q29 0 48 9t33 29l339 494q18 23 37.5 32.5t48.5 9.5h156l-400 -564q-32 -43 -67 -61q46 -16 83 -65l413 -624h-160q-33 0 -48.5 10.5t-29.5 27.5l-348 520q-16 23 -34.5 32.5t-55.5 9.5h-67v-600h-182z" />
<glyph unicode="L" horiz-adv-x="861" d="M138 0v1314h182v-1161h507v-153h-689z" />
<glyph unicode="M" horiz-adv-x="1751" d="M167 0v1314h134q24 0 37.5 -4.5t26.5 -26.5l470 -804q13 -23 23.5 -47t20.5 -49q10 26 20.5 50t22.5 46l464 805q12 21 26 25.5t38 4.5h134v-1314h-161v959q0 20 1.5 44.5t3.5 49.5l-469 -824q-23 -41 -66 -41h-26q-43 0 -66 41l-480 823q6 -50 6 -93v-959h-160z" />
<glyph unicode="N" horiz-adv-x="1322" d="M148 0v1314h95q23 0 35 -5.5t27 -25.5l714 -983q-2 24 -3.5 47.5t-1.5 43.5v923h160v-1314h-92q-21 0 -35.5 7t-28.5 25l-714 980q2 -23 3 -44t1 -40v-928h-160z" />
<glyph unicode="O" horiz-adv-x="1356" d="M72 657q0 147 44 270.5t124 213t192 139t247 49.5q136 0 247.5 -49.5t191 -139t123 -213t43.5 -270.5q0 -148 -43.5 -271t-123 -212t-191 -138.5t-247.5 -49.5q-135 0 -247 49.5t-192 138.5t-124 212t-44 271zM259 657q0 -120 29.5 -215.5t84.5 -162t132.5 -101.5 t173.5 -35t173.5 35t132 101.5t84 162t29.5 215.5t-29.5 215.5t-84 162t-132 102t-173.5 35.5t-173.5 -35.5t-132.5 -102t-84.5 -162t-29.5 -215.5z" />
<glyph unicode="P" horiz-adv-x="1058" d="M147 0v1314h377q120 0 208.5 -29t146.5 -82t86.5 -128.5t28.5 -168.5q0 -92 -30.5 -168t-90 -131.5t-147 -86t-202.5 -30.5h-195v-490h-182zM329 634h195q70 0 124 20t90.5 56t55 86t18.5 110q0 126 -71 195.5t-217 69.5h-195v-537z" />
<glyph unicode="Q" horiz-adv-x="1378" d="M83 657q0 147 44 270.5t124 213t192 139t247 49.5q136 0 247.5 -49.5t191 -139t123 -213t43.5 -270.5q0 -174 -59 -311.5t-165 -227.5l340 -389h-151q-33 0 -59 10t-48 33l-224 260q-109 -46 -239 -46q-135 0 -247 49.5t-192 138.5t-124 212t-44 271zM270 657 q0 -120 29.5 -215.5t84.5 -162t132.5 -101.5t173.5 -35t173.5 35t132 101.5t84 162t29.5 215.5t-29.5 215.5t-84 162t-132 102t-173.5 35.5t-173.5 -35.5t-132.5 -102t-84.5 -162t-29.5 -215.5z" />
<glyph unicode="R" horiz-adv-x="1112" d="M147 0v1314h360q120 0 207.5 -25.5t144 -73t83.5 -115t27 -151.5q0 -69 -20.5 -129t-59 -108t-94.5 -82.5t-127 -52.5q17 -11 32 -24.5t29 -32.5l353 -520h-162q-47 0 -73 37l-311 468q-15 22 -32.5 31.5t-52.5 9.5h-122v-546h-182zM329 679h171q72 0 126.5 18.5 t91.5 52.5t55.5 81.5t18.5 104.5q0 235 -285 235h-178v-492z" />
<glyph unicode="S" horiz-adv-x="941" d="M55 158l53 86q7 11 17.5 17.5t24.5 6.5q19 0 42.5 -20.5t58.5 -45t84.5 -45t118.5 -20.5q58 0 103 17t76.5 48t48 74.5t16.5 96.5q0 59 -25.5 97t-67 63.5t-94.5 43t-108 36.5t-108 43.5t-94.5 64.5t-67 99t-25.5 147q0 69 26 134.5t75.5 116t122 81t166.5 30.5 q105 0 192.5 -35t151.5 -102l-45 -85q-15 -28 -41 -28q-15 0 -35.5 15.5t-50 34t-71 34t-99.5 15.5q-55 0 -96.5 -15.5t-69 -43t-41.5 -64t-14 -78.5q0 -55 25.5 -91t67 -61.5t94.5 -44.5t108 -39t108 -45.5t94.5 -64t67 -94.5t25.5 -137q0 -87 -28 -162.5t-81.5 -131.5 t-131.5 -88t-178 -32q-121 0 -222.5 46.5t-172.5 125.5z" />
<glyph unicode="T" horiz-adv-x="998" d="M24 1162v152h950v-152h-383v-1162h-183v1162h-384z" />
<glyph unicode="U" horiz-adv-x="1314" d="M140 516v798h182v-797q0 -82 22.5 -150.5t65.5 -118t105.5 -77t141.5 -27.5t141.5 27.5t105.5 77t65.5 117.5t22.5 150v798h182v-798q0 -114 -36 -211t-102.5 -168t-162.5 -111.5t-216 -40.5t-215.5 40.5t-162.5 111.5t-103 168t-36 211z" />
<glyph unicode="V" horiz-adv-x="1162" d="M6 1314h147q24 0 39 -12t22 -30l325 -921q12 -31 23.5 -67.5t20.5 -76.5q8 40 18.5 76.5t22.5 67.5l324 920q6 17 22 30t39 13h147l-493 -1314h-164z" />
<glyph unicode="W" horiz-adv-x="1822" d="M12 1314h153q23 0 39.5 -11.5t21.5 -30.5l255 -907q14 -48 26 -112q6 31 13 59.5t15 53.5l293 905q5 17 22 30t40 13h53q24 0 39.5 -11.5t21.5 -30.5l293 -907q8 -24 15 -51.5t13 -57.5q6 30 12 58t13 51l254 906q5 17 22.5 30t40.5 13h143l-399 -1314h-165l-316 996 q-5 14 -9.5 30.5t-9.5 35.5q-4 -19 -8.5 -35.5t-9.5 -30.5l-318 -996h-164z" />
<glyph unicode="X" horiz-adv-x="1063" d="M11 0l396 674l-380 640h181q20 0 29 -7t17 -18l289 -512q7 17 16 30l266 479q8 13 17.5 20.5t23.5 7.5h174l-382 -630l394 -684h-181q-20 0 -31 11t-19 23l-297 536q-5 -15 -12 -25l-284 -511q-8 -13 -19 -23.5t-28 -10.5h-170z" />
<glyph unicode="Y" horiz-adv-x="998" d="M0 1314h160q23 0 37.5 -11.5t24.5 -30.5l225 -507q17 -31 30 -58.5t23 -54.5q10 27 22.5 54.5t29.5 57.5l223 508q8 15 23 28.5t38 13.5h162l-408 -789v-525h-182v523z" />
<glyph unicode="Z" horiz-adv-x="959" d="M56 0v71q0 15 5 28t13 25l614 1042h-598v148h820v-67q0 -32 -19 -60l-615 -1039h621v-148h-841z" />
<glyph unicode="[" horiz-adv-x="628" d="M160 -279v1759h358v-68q0 -20 -13 -33.5t-35 -13.5h-163v-1529h163q22 0 35 -13.5t13 -33.5v-68h-358z" />
<glyph unicode="\" horiz-adv-x="791" d="M-17 1422h75q32 0 56 -16.5t37 -47.5l638 -1445h-72q-29 0 -56.5 16.5t-41.5 50.5z" />
<glyph unicode="]" horiz-adv-x="628" d="M110 -211q0 20 13.5 33.5t35.5 13.5h162v1529h-162q-22 0 -35.5 13.5t-13.5 33.5v68h358v-1759h-358v68z" />
<glyph unicode="^" d="M76 671l375 712h113l380 -712h-128q-17 0 -29 9t-19 23l-219 427q-26 48 -40 94q-8 -23 -17 -45.5t-21 -47.5l-210 -427q-7 -14 -19 -23.5t-32 -9.5h-134z" />
<glyph unicode="_" d="M0 -158h1020v-117h-1020v117z" />
<glyph unicode="`" horiz-adv-x="596" d="M136 1399h166q32 0 48 -10.5t29 -32.5l143 -233h-100q-20 0 -33 6t-27 21z" />
<glyph unicode="a" horiz-adv-x="981" d="M84 244q0 58 31.5 111.5t102.5 95.5t185 68.5t280 30.5v75q0 114 -48.5 171.5t-141.5 57.5q-62 0 -104.5 -16t-73.5 -35t-53.5 -35t-45.5 -16q-18 0 -31 9t-21 23l-32 56q81 78 174.5 116.5t207.5 38.5q82 0 146 -26.5t107 -75.5t65.5 -117t22.5 -151v-625h-78 q-26 0 -40 8t-19 33l-22 91q-38 -35 -74.5 -62.5t-76.5 -46.5t-86 -28.5t-101 -9.5q-57 0 -106.5 15.5t-87 48t-59 81t-21.5 114.5zM253 253q0 -38 12.5 -65.5t33.5 -45t50 -26t62 -8.5q44 0 81 9t70 25.5t62.5 41t58.5 54.5v202q-117 -5 -199 -19.5t-133.5 -38.5 t-74.5 -56.5t-23 -72.5z" />
<glyph unicode="b" horiz-adv-x="1076" d="M144 0v1422h176v-583q60 71 137 112.5t177 41.5q85 0 153 -33t116 -95t73.5 -150.5t25.5 -200.5q0 -119 -29 -216t-83 -166.5t-131 -107.5t-173 -38t-160.5 36.5t-114.5 101.5l-10 -87q-4 -37 -43 -37h-114zM320 236q46 -63 101 -88.5t121 -25.5q135 0 207 97t72 289 q0 178 -64 262t-182 84q-81 0 -142.5 -38t-112.5 -108v-472z" />
<glyph unicode="c" horiz-adv-x="866" d="M69 490q0 109 29 201.5t84.5 159.5t137 104.5t187.5 37.5q100 0 175 -33.5t133 -93.5l-46 -64q-8 -11 -15.5 -16.5t-21.5 -5.5q-15 0 -31 12t-40 26.5t-58.5 26.5t-84.5 12q-66 0 -116.5 -25.5t-84 -73t-51 -115.5t-17.5 -153q0 -88 18.5 -156.5t52.5 -115.5t82 -71.5 t108 -24.5q58 0 95 15t62 33t41.5 33t34.5 15q20 0 32 -17l51 -64q-32 -39 -71 -67.5t-84 -47t-93.5 -27.5t-98.5 -9q-86 0 -161 34t-130.5 98.5t-87 158t-31.5 213.5z" />
<glyph unicode="d" horiz-adv-x="1076" d="M74 486q0 108 28.5 201.5t82.5 161.5t131.5 107t175.5 39q89 0 152 -29.5t112 -84.5v541h176v-1422h-105q-19 0 -31 8.5t-14 27.5l-18 117q-62 -75 -141 -121t-183 -46q-83 0 -150.5 32.5t-115.5 95.5t-74 156.5t-26 215.5zM255 486q0 -95 16.5 -163t47.5 -111.5t76 -64 t102 -20.5q83 0 144.5 38.5t114.5 107.5v473q-47 63 -102 88.5t-122 25.5q-133 0 -205 -97t-72 -277z" />
<glyph unicode="e" horiz-adv-x="1019" d="M75 509q0 102 31.5 190.5t91 154t145 102.5t192.5 37q88 0 163 -29t130 -85t86 -137t31 -186q0 -41 -9 -54.5t-33 -13.5h-654q2 -92 25 -160.5t63.5 -113.5t96.5 -67.5t125 -22.5q64 0 111 14.5t80.5 32.5t56.5 32.5t40 14.5q11 0 19 -4.5t14 -12.5l50 -64 q-33 -39 -77.5 -67.5t-95.5 -47t-105.5 -27.5t-107.5 -9q-102 0 -188 34t-148.5 100.5t-97.5 164t-35 224.5zM254 596h533q0 59 -17 108.5t-49 85t-78.5 55.5t-104.5 20q-123 0 -194.5 -72t-89.5 -197z" />
<glyph unicode="f" horiz-adv-x="625" d="M24 888v72h146v93q0 84 22.5 149.5t64.5 110t102 68t135 23.5q31 0 60.5 -5t56.5 -14l-5 -88q-2 -23 -24 -25.5t-59 -2.5q-42 0 -75.5 -11t-57.5 -37t-37 -68.5t-13 -104.5v-88h263v-128h-257v-832h-176v831l-99 13q-21 2 -34 13t-13 31z" />
<glyph unicode="g" horiz-adv-x="964" d="M64 -93q0 72 42.5 122t117.5 79q-41 19 -65 52t-24 88q0 42 30 89t90 78q-69 41 -108.5 108t-39.5 156q0 72 26.5 130t73.5 99.5t112 63.5t143 22q61 0 114 -14t96 -40h256v-65q0 -35 -40 -41l-104 -15q31 -64 31 -140q0 -72 -26.5 -130t-73.5 -99t-111.5 -63.5 t-141.5 -22.5q-64 0 -118 15q-29 -19 -43 -40.5t-14 -42.5q0 -35 27 -52t71 -25t100 -10t114.5 -6.5t114.5 -14.5t100 -34.5t71 -67t27 -110.5q0 -63 -30 -122t-86.5 -105t-138 -73.5t-184.5 -27.5t-180 21t-128 57t-76 83t-25 98zM218 -71q0 -33 15 -61t46.5 -48.5 t80.5 -32.5t116 -12q66 0 117 13t86 35.5t53 54t18 69.5q0 35 -18.5 57t-50.5 34.5t-74 18t-89 8.5t-95.5 5t-93.5 9q-49 -26 -80 -62.5t-31 -87.5zM268 675q0 -43 12.5 -78.5t37 -61.5t61 -40.5t83.5 -14.5q97 0 146.5 54t49.5 141q0 89 -49.5 141.5t-146.5 52.5 q-95 0 -144.5 -52.5t-49.5 -141.5z" />
<glyph unicode="h" horiz-adv-x="1076" d="M143 0v1422h176v-573q61 66 135.5 105t172.5 39q80 0 140.5 -26.5t101.5 -75t61.5 -117t20.5 -151.5v-623h-176v623q0 109 -49 170t-150 61q-75 0 -139 -36t-118 -99v-719h-176z" />
<glyph unicode="i" horiz-adv-x="470" d="M110 0zM110 1284q0 26 10 48.5t26.5 39.5t38.5 27t47 10t47.5 -10t40 -27t27.5 -39.5t10 -48.5q0 -25 -10 -47.5t-27.5 -39t-40 -26.5t-47.5 -10t-47 10t-38.5 26.5t-26.5 39t-10 47.5zM147 0v978h176v-978h-176z" />
<glyph unicode="j" horiz-adv-x="490" d="M-55 -332l10 94q1 9 4.5 13.5t11 5.5t20 0.5t31.5 -0.5q76 0 109 35t33 113v1049h176v-1049q0 -59 -16 -110t-50.5 -88.5t-88 -59.5t-128.5 -22q-32 0 -58.5 4.5t-53.5 14.5zM0 0zM129 1284q0 26 10 48.5t26.5 39.5t38.5 27t47 10t47.5 -10t40 -27t27.5 -39.5t10 -48.5 q0 -25 -10 -47.5t-27.5 -39t-40 -26.5t-47.5 -10t-47 10t-38.5 26.5t-26.5 39t-10 47.5z" />
<glyph unicode="k" horiz-adv-x="931" d="M128 0v1422h176v-836h40q19 0 30.5 5t24.5 22l260 331q14 16 29 25t38 9h160l-307 -385q-14 -15 -28 -27.5t-30 -22.5q17 -11 30.5 -26.5t27.5 -32.5l327 -484h-158q-21 0 -37 7.5t-29 25.5l-267 401q-14 20 -26.5 26.5t-39.5 6.5h-45v-467h-176z" />
<glyph unicode="l" horiz-adv-x="470" d="M147 0v1422h176v-1422h-176z" />
<glyph unicode="m" horiz-adv-x="1636" d="M147 0v978h104q20 0 31.5 -8.5t13.5 -27.5l15 -100q28 33 58.5 60.5t65.5 48t75 31.5t85 11q101 0 164.5 -55t90.5 -148q21 54 55.5 92t76.5 63t90 36.5t98 11.5q160 0 247.5 -96t87.5 -274v-623h-176v623q0 114 -52 172.5t-149 58.5q-44 0 -83 -14.5t-68.5 -44 t-47 -72.5t-17.5 -100v-623h-176v623q0 117 -48.5 174t-142.5 57q-64 0 -120 -33.5t-102 -92.5v-728h-176z" />
<glyph unicode="n" horiz-adv-x="1076" d="M140 0v978h105q19 0 31 -8.5t14 -27.5l15 -104q63 70 141 112.5t180 42.5q80 0 140.5 -26.5t101.5 -75t62 -117t21 -151.5v-623h-176v623q0 109 -49.5 170t-150.5 61q-75 0 -140 -35.5t-119 -98.5v-720h-176z" />
<glyph unicode="o" horiz-adv-x="1080" d="M75 490q0 115 32.5 208t93 158.5t147 101t193.5 35.5t193 -35.5t146 -101t92.5 -158.5t32.5 -208q0 -116 -32.5 -209t-92.5 -158.5t-146 -101t-193 -35.5t-193.5 35.5t-147 101t-93 158.5t-32.5 209zM256 489q0 -87 17.5 -155t53 -115t89 -71.5t125.5 -24.5 q71 0 124 24.5t88.5 71.5t53 115t17.5 155t-17.5 155t-53 115t-88.5 72t-124 25q-72 0 -125.5 -25t-89 -72t-53 -115t-17.5 -155z" />
<glyph unicode="p" horiz-adv-x="1076" d="M141 -330v1308h105q19 0 31 -8.5t14 -27.5l17 -114q62 75 142 121t184 46q84 0 152 -32.5t116 -95.5t74 -156t26 -215q0 -108 -29 -201.5t-83.5 -162t-132.5 -107.5t-176 -39q-89 0 -152 30t-112 84v-430h-176zM317 236q46 -63 101.5 -88.5t123.5 -25.5q134 0 206.5 97 t72.5 277q0 95 -16.5 163t-48 111.5t-77 63.5t-103.5 20q-82 0 -144.5 -38t-114.5 -108v-472z" />
<glyph unicode="q" horiz-adv-x="1076" d="M74 486q0 108 29 201.5t83 161.5t132 107t176 39q95 0 160.5 -33.5t116.5 -94.5l13 75q7 36 46 36h105v-1308h-176v473q-61 -72 -139 -114.5t-178 -42.5q-84 0 -152 32.5t-116 95.5t-74 156.5t-26 215.5zM255 486q0 -95 16.5 -163t48 -111.5t77 -64t102.5 -20.5 q83 0 145 38.5t115 107.5v473q-45 61 -101.5 87.5t-123.5 26.5q-134 0 -206.5 -97t-72.5 -277z" />
<glyph unicode="r" horiz-adv-x="714" d="M131 0v978h101q28 0 39.5 -11t13.5 -37l12 -144q45 97 111 153t159 56q31 0 58 -6.5t49 -21.5l-14 -130q-3 -25 -28 -25q-14 0 -39.5 5.5t-56.5 5.5q-45 0 -79.5 -13.5t-62 -40t-48.5 -64.5t-39 -87v-618h-176z" />
<glyph unicode="s" horiz-adv-x="801" d="M70 104l41 66q8 13 19 20t28 7q18 0 36 -13.5t43.5 -30t61.5 -30t90 -13.5q46 0 79.5 13t55.5 34.5t33 50.5t11 61q0 40 -20.5 66.5t-53.5 45t-75.5 32.5t-87 29.5t-87 35t-75.5 50t-53.5 74.5t-20.5 107q0 57 22 108.5t64 90.5t104 62t142 23q91 0 165 -30t126 -84 l-39 -63q-12 -22 -36 -22q-15 0 -32.5 11t-42 23.5t-58 23.5t-79.5 11q-39 0 -70 -11t-53 -30t-34 -44.5t-12 -54.5q0 -38 20 -63t53 -43t75.5 -32.5t86.5 -29.5t86.5 -35t75.5 -49t53 -70.5t20 -100.5q0 -68 -23 -125.5t-67.5 -99.5t-110 -66t-150.5 -24q-97 0 -176.5 33 t-134.5 86z" />
<glyph unicode="t" horiz-adv-x="686" d="M34 871v70l154 20l41 301q2 15 12.5 24t26.5 9h90v-335h269v-128h-269v-584q0 -60 27.5 -90t71.5 -30q26 0 44.5 7t31.5 16t22.5 16t17.5 7q9 0 14.5 -4t10.5 -13l52 -84q-45 -42 -106 -65t-127 -23q-113 0 -174 65t-61 186v596h-112q-15 0 -25.5 10t-10.5 29z" />
<glyph unicode="u" horiz-adv-x="1076" d="M125 355v623h176v-623q0 -110 49.5 -170.5t150.5 -60.5q75 0 139.5 35.5t119.5 97.5v721h176v-978h-106q-18 0 -30 8.5t-14 27.5l-16 104q-63 -70 -140.5 -112.5t-179.5 -42.5q-80 0 -140.5 26.5t-101.5 75t-62 117t-21 151.5z" />
<glyph unicode="v" horiz-adv-x="925" d="M19 978h145q20 0 34 -11t19 -25l209 -626q13 -35 22 -68t17 -67q7 33 16.5 66.5t23.5 68.5l212 626q6 15 19.5 25.5t30.5 10.5h139l-364 -978h-159z" />
<glyph unicode="w" horiz-adv-x="1464" d="M21 978h139q20 0 34 -11t18 -26l175 -624q10 -34 17 -66.5t12 -64.5q8 32 18 64.5t21 67.5l194 628q5 15 18 24.5t31 9.5h76q20 0 32.5 -9.5t17.5 -24.5l190 -628q11 -34 20 -67t17 -65q11 65 31 132l179 624q5 16 18 26t32 10h132l-307 -978h-140q-25 0 -35 33l-205 659 q-8 23 -13.5 45.5t-10.5 45.5l-10 -46t-13 -46l-208 -658q-11 -33 -39 -33h-133z" />
<glyph unicode="x" horiz-adv-x="887" d="M23 0l304 502l-291 476h168q20 0 29.5 -7t17.5 -19l204 -355q4 11 8.5 21.5t12.5 21.5l171 308q9 14 19 22t24 8h161l-292 -467l305 -511h-169q-20 0 -32.5 11.5t-20.5 24.5l-207 370q-8 -23 -18 -39l-187 -331q-8 -14 -19.5 -25t-30.5 -11h-157z" />
<glyph unicode="y" horiz-adv-x="927" d="M11 978h152q23 0 35 -11t18 -25l228 -612q8 -21 15.5 -42t12.5 -42q6 22 13.5 43.5t15.5 42.5l221 610q6 15 20 25.5t31 10.5h140l-504 -1266q-8 -20 -21.5 -31t-39.5 -11h-131l168 388z" />
<glyph unicode="z" horiz-adv-x="809" d="M60 0v73q0 13 6.5 30t17.5 33l464 705h-461v137h662v-74q0 -19 -6.5 -36.5t-16.5 -31.5l-463 -699h471v-137h-674z" />
<glyph unicode="{" horiz-adv-x="644" d="M74 548v105q64 0 97.5 38.5t33.5 99.5q0 49 -7.5 96.5t-17 94.5t-17 95t-7.5 98q0 67 20 123t60.5 96.5t100 63t139.5 22.5h52v-78q0 -20 -14 -28.5t-25 -8.5h-19q-75 0 -117.5 -48.5t-42.5 -131.5q0 -54 7 -104t15 -98t15 -94.5t7 -94.5q0 -36 -11 -67.5t-30 -57 t-46 -43t-58 -26.5q31 -9 58 -26.5t46 -43t30 -56.5t11 -67q0 -48 -7 -95t-15 -95t-15 -98t-7 -104q0 -82 42.5 -130.5t117.5 -48.5h19q11 0 25 -8.5t14 -28.5v-78h-52q-80 0 -139.5 22.5t-100 63t-60.5 96.5t-20 123q0 50 7.5 98t17 95t17 94.5t7.5 95.5q0 62 -33.5 100.5 t-97.5 38.5z" />
<glyph unicode="|" horiz-adv-x="943" d="M403 -337v1817h137v-1817h-137z" />
<glyph unicode="}" horiz-adv-x="644" d="M116 -201q0 20 14 28.5t25 8.5h19q75 0 117.5 48.5t42.5 130.5q0 54 -7 104t-15 98t-15 95t-7 95q0 36 11 67t30.5 56.5t46 43t58.5 26.5q-32 9 -58.5 26.5t-46 43t-30.5 57t-11 67.5q0 48 7 94.5t15 94.5t15 98t7 104q0 83 -42.5 131.5t-117.5 48.5h-19q-11 0 -25 8.5 t-14 28.5v78h52q80 0 140 -22.5t100 -63t60 -96.5t20 -123q0 -50 -7.5 -98t-16.5 -95t-16.5 -94.5t-7.5 -96.5q0 -61 33 -99.5t97 -38.5v-105q-64 0 -97 -38.5t-33 -100.5q0 -48 7.5 -95.5t16.5 -94.5t16.5 -95t7.5 -98q0 -67 -20 -123t-60 -96.5t-100 -63t-140 -22.5h-52 v78z" />
<glyph unicode="~" d="M62 399q0 65 18 119t51.5 93t82.5 60.5t112 21.5q51 0 100 -15.5t94.5 -34.5t86.5 -34.5t76 -15.5q63 0 97.5 40.5t35.5 108.5h142q0 -65 -18 -119.5t-51.5 -93.5t-82.5 -60.5t-112 -21.5q-51 0 -100 16t-94.5 34.5t-86.5 34.5t-76 16q-63 0 -97.5 -40.5t-35.5 -108.5 h-142z" />
<glyph unicode="&#xa1;" horiz-adv-x="667" d="M211 872q0 26 9.5 48t26 38.5t39 25.5t48.5 9q25 0 47.5 -9t39 -25.5t26 -38.5t9.5 -48t-9.5 -48t-26 -39t-39 -26.5t-47.5 -9.5q-26 0 -48.5 9.5t-39 26.5t-26 39t-9.5 48zM252 191q0 43 2 84.5t5.5 83.5t8 86t9.5 94h119q6 -50 10.5 -94t7.5 -86t4.5 -83.5t1.5 -84.5 v-521h-168v521z" />
<glyph unicode="&#xa2;" d="M118 489q0 106 29 196.5t84.5 157t137.5 105.5t187 43l12 172q2 19 15 33t33 14h66l-15 -225q71 -12 128 -42.5t105 -76.5l-45 -62q-8 -10 -15.5 -15t-21.5 -5q-11 0 -24.5 8t-32.5 18.5t-44 22t-59 18.5l-50 -730q53 4 88.5 19.5t60 31.5t41.5 29t32 13q11 0 20 -4.5 t14 -11.5l48 -61q-56 -69 -137.5 -105t-175.5 -44l-11 -167q-2 -19 -15 -33.5t-34 -14.5h-65l14 217q-80 10 -147.5 48.5t-117 102.5t-77.5 151.5t-28 196.5zM292 489q0 -152 54 -243t152 -117l49 727q-63 -6 -111 -34t-80 -75t-48 -112t-16 -146z" />
<glyph unicode="&#xa3;" horiz-adv-x="1038" d="M70 461v52q0 25 16 43t45 18h86v113q0 82 21 155.5t66 129t116.5 88.5t172.5 33q124 0 206 -61t125 -167l-51 -40q-9 -7 -19.5 -12.5t-23.5 -5.5t-24 10.5t-22.5 26.5t-25.5 34t-34.5 34t-49.5 26.5t-69 10.5q-114 0 -167 -69t-53 -192v-114h393v-66q0 -18 -14.5 -32.5 t-36.5 -14.5h-342v-120q0 -134 -89 -215q30 7 60.5 11t62.5 4h544v-141h-885v110q61 14 100 59t39 127v165h-147z" />
<glyph unicode="&#xa4;" d="M77 990l89 89l146 -146q42 29 92 45.5t106 16.5q54 0 103.5 -16t91.5 -44l147 147l88 -89l-146 -147q29 -42 45.5 -92t16.5 -105t-15.5 -104t-44.5 -91l147 -146l-89 -89l-146 146q-42 -29 -92 -45t-106 -16q-54 0 -103 15t-91 43l-147 -147l-89 90l147 146 q-29 42 -45.5 92t-16.5 106q0 54 15.5 103t43.5 91zM296 649q0 -44 17 -83t46 -68.5t68 -46.5t83 -17q45 0 84.5 17t69 46.5t46.5 68.5t17 83q0 45 -17 84.5t-46.5 68.5t-69 46t-84.5 17q-44 0 -83 -17t-68 -46t-46 -68.5t-17 -84.5z" />
<glyph unicode="&#xa5;" horiz-adv-x="1038" d="M51 1074h135q27 0 47 -17t31 -36l210 -365q20 -35 32 -62t20 -53q6 27 17.5 54t31.5 61l207 364q12 20 36.5 37t56.5 17h121l-351 -568h259v-98h-300v-93h300v-97h-300v-218h-159v218h-301v97h301v93h-301v98h259z" />
<glyph unicode="&#xa6;" d="M441 -330v767h138v-767h-138zM441 713v767h138v-767h-138z" />
<glyph unicode="&#xa7;" d="M118 673q0 76 43.5 136t137.5 95q-50 36 -81.5 86.5t-31.5 122.5q0 57 24 108.5t70.5 90.5t114 62t154.5 23q100 0 180.5 -30t138.5 -84l-39 -63q-12 -22 -37 -22q-15 0 -34 11t-47 23.5t-66.5 23.5t-92.5 11q-50 0 -89 -11.5t-66 -31.5t-41 -46.5t-14 -56.5 q0 -36 24.5 -63.5t65 -50.5t92 -43.5t105 -43t105 -48.5t92 -60.5t65 -78.5t24.5 -103q0 -79 -39 -141t-124 -98q50 -35 81 -82.5t31 -113.5q0 -68 -25.5 -125.5t-74.5 -100t-121 -66.5t-165 -24q-107 0 -193.5 33.5t-147.5 86.5l41 66q15 26 47 26q18 0 38 -13.5 t49.5 -29.5t72.5 -29.5t108 -13.5q104 0 160.5 44.5t56.5 116.5q0 43 -25.5 74.5t-67 56t-95 45t-109 41.5t-108.5 46t-94.5 59t-67 78.5t-25.5 106.5zM274 700q0 -33 16.5 -58.5t44.5 -47t65.5 -39.5t80 -35.5t87 -35t87.5 -37.5q57 25 81 61.5t24 81.5q0 52 -33.5 87.5 t-86 63.5t-116.5 52t-125 53q-68 -29 -96.5 -64.5t-28.5 -81.5z" />
<glyph unicode="&#xa8;" horiz-adv-x="804" d="M105 1134zM105 1244q0 23 8.5 43t23.5 35t35 24t43 9q22 0 42.5 -9t36 -24t24.5 -35t9 -43t-9 -43t-24.5 -35t-36 -23.5t-42.5 -8.5q-23 0 -43 8.5t-35 23.5t-23.5 35t-8.5 43zM475 1244q0 23 8.5 43t23.5 35t35 24t43 9q22 0 42.5 -9t36 -24t24.5 -35t9 -43t-9 -43 t-24.5 -35t-36 -23.5t-42.5 -8.5q-23 0 -43 8.5t-35 23.5t-23.5 35t-8.5 43z" />
<glyph unicode="&#xa9;" horiz-adv-x="1709" d="M149 692q0 97 25 187t71 168.5t110.5 143t143 110.5t168.5 71.5t187 25.5t187.5 -25.5t169 -71.5t143 -110.5t110.5 -143t71 -168.5t25 -187t-25 -187t-71 -168.5t-110.5 -143t-143 -110.5t-169 -71.5t-187.5 -25.5t-187 25.5t-168.5 71.5t-143 110.5t-110.5 143 t-71 168.5t-25 187zM248 692q0 -129 47 -242t129 -196t192.5 -131t237.5 -48t238.5 48t194 131t130 196t47.5 242q0 86 -21.5 165.5t-61 148.5t-95 125.5t-123.5 96.5t-146 62t-163 22t-162.5 -22t-145 -62t-122.5 -96.5t-94 -125.5t-60.5 -148.5t-21.5 -165.5zM436 694 q0 97 33.5 178.5t92 140t139 91t175.5 32.5q52 0 96.5 -8.5t82 -24.5t69 -38t59.5 -49l-46 -63q-5 -7 -12.5 -12.5t-19.5 -5.5q-14 0 -28.5 11t-38.5 23.5t-60.5 23.5t-92.5 11q-68 0 -122 -21.5t-91.5 -62t-58 -97.5t-20.5 -129q0 -74 20.5 -132t57 -97.5t87 -60 t109.5 -20.5q50 0 83.5 8t59 19t46 24t44.5 23q7 3 13.5 -1t11.5 -9l60 -63q-55 -63 -135 -98.5t-192 -35.5q-95 0 -172.5 33t-133 92t-86 140.5t-30.5 177.5z" />
<glyph unicode="&#xaa;" horiz-adv-x="824" d="M169 958q0 33 18 65.5t60.5 58t112.5 42.5t173 19v35q0 61 -27.5 89.5t-81.5 28.5q-36 0 -60.5 -8.5t-42.5 -18t-32 -18t-30 -8.5q-13 0 -22.5 7.5t-14.5 16.5l-23 40q51 48 110 70.5t130 22.5q52 0 92.5 -16.5t68.5 -46t43 -70t15 -89.5v-367h-59q-18 0 -27 5.5 t-17 22.5l-12 47q-23 -21 -45 -36.5t-46 -26t-51 -16t-60 -5.5q-36 0 -67.5 10t-55 29.5t-36.5 48.5t-13 68zM292 965q0 -40 25 -56.5t63 -16.5q48 0 83 18t70 51v101q-67 -2 -113 -10t-74.5 -20.5t-41 -29.5t-12.5 -37z" />
<glyph unicode="&#xab;" horiz-adv-x="1049" d="M210 125zM210 500v23l241 375l57 -27q23 -11 27.5 -30.5t-9.5 -42.5l-152 -252q-12 -22 -27 -35q14 -13 27 -34l151 -252q14 -23 10 -42.5t-27 -30.5l-57 -27zM535 500v23l241 375l57 -27q23 -11 27.5 -30.5t-9.5 -42.5l-152 -252q-12 -22 -27 -35q14 -13 27 -34 l151 -252q14 -23 10 -42.5t-27 -30.5l-57 -27z" />
<glyph unicode="&#xac;" d="M93 581v133h832v-410h-150v277h-682z" />
<glyph unicode="&#xad;" horiz-adv-x="627" d="M75 504v149h478v-149h-478z" />
<glyph unicode="&#xae;" horiz-adv-x="1038" d="M59 1102q0 65 24.5 121.5t67.5 98.5t100.5 66.5t123.5 24.5t123.5 -24.5t100 -66.5t67 -98.5t24.5 -121.5t-24.5 -121.5t-67 -99t-100 -67t-123.5 -24.5t-123.5 24.5t-100.5 67t-67.5 99t-24.5 121.5zM120 1102q0 -54 19.5 -101t54 -82.5t81.5 -55.5t101 -20 q55 0 101.5 20t81 55.5t54 82.5t19.5 101t-19.5 102t-54 83t-81 55.5t-101.5 20.5q-54 0 -101 -20.5t-81.5 -55.5t-54 -83t-19.5 -102zM250 925v372h119q81 0 114.5 -29.5t33.5 -77.5q0 -38 -20.5 -66.5t-58.5 -41.5q7 -5 13 -10t11 -13l79 -134h-69q-11 0 -16.5 4t-10.5 12 l-64 110q-5 9 -11 11.5t-17 2.5h-29v-140h-74zM324 1122h44q43 0 61.5 18.5t18.5 44.5t-19.5 41.5t-59.5 15.5h-45v-120z" />
<glyph unicode="&#xaf;" horiz-adv-x="807" d="M126 1187v114h555v-114h-555z" />
<glyph unicode="&#xb0;" horiz-adv-x="694" d="M31 1088q0 65 24.5 122t67 99t100 66.5t123.5 24.5t124 -24.5t100.5 -66.5t67 -99t24.5 -122q0 -64 -24.5 -120.5t-67 -99t-100.5 -67t-124 -24.5t-123.5 24.5t-100 67t-67 99t-24.5 120.5zM156 1087q0 -40 14.5 -75t40 -60.5t60 -40.5t75.5 -15q40 0 75 15t60.5 40.5 t40 60.5t14.5 75t-14.5 75.5t-40 62t-60.5 41.5t-75 15q-41 0 -75.5 -15t-60 -41.5t-40 -62t-14.5 -75.5z" />
<glyph unicode="&#xb1;" d="M46 77v133h926v-133h-926zM46 667v132h390v363h144v-363h392v-132h-392v-354h-144v354h-390z" />
<glyph unicode="&#xb2;" horiz-adv-x="688" d="M100 868v42q0 13 5 27t16 25l213 211q48 48 81 99.5t33 102.5q0 49 -28.5 75t-70.5 26q-43 0 -69.5 -23.5t-41.5 -62.5q-7 -18 -20.5 -25t-39.5 -2l-70 11q7 51 28 90t53.5 64.5t74.5 38.5t91 13q51 0 92 -14.5t70 -41t45 -63.5t16 -82q0 -39 -12 -72t-32.5 -63 t-47 -58.5t-54.5 -57.5l-154 -157q23 6 46 10t43 4h184q20 0 31.5 -11t11.5 -30v-76h-494zM100 868z" />
<glyph unicode="&#xb3;" horiz-adv-x="685" d="M99 860zM99 1047l55 23q21 9 40 5t27 -21q4 -9 12 -24t22 -29.5t35.5 -24.5t53.5 -10q29 0 51.5 9.5t37.5 24.5t22.5 34t7.5 39q0 28 -8 49t-26.5 34.5t-49.5 20t-76 6.5v85q83 1 117.5 29.5t34.5 78.5q0 48 -28 73t-73 25t-72 -23t-41 -60q-8 -20 -19 -26.5t-37 -1.5 l-66 11q7 51 28.5 90t53 64.5t72 38.5t87.5 13q49 0 89.5 -14t68.5 -38.5t43.5 -58t15.5 -71.5q0 -123 -113 -167q63 -18 95.5 -55.5t32.5 -97.5q0 -53 -20 -94t-54 -68.5t-77.5 -41.5t-90.5 -14q-54 0 -94.5 12t-70.5 35.5t-50.5 58.5t-35.5 81z" />
<glyph unicode="&#xb4;" horiz-adv-x="598" d="M81 1123l143 233q13 22 29 32.5t48 10.5h172l-226 -249q-14 -15 -27.5 -21t-33.5 -6h-105z" />
<glyph unicode="&#xb5;" horiz-adv-x="1126" d="M135 0zM135 -256v1234h176v-591q0 -109 47.5 -173t143.5 -64q84 0 145.5 48t102.5 133v647h176v-712q0 -75 35.5 -109.5t95.5 -34.5h57v-71q0 -23 -31 -41.5t-86 -18.5q-39 0 -75 11.5t-65.5 35.5t-51 60.5t-31.5 87.5q-54 -85 -124.5 -132.5t-158.5 -47.5 q-67 0 -116.5 21t-84.5 61q5 -38 7.5 -77.5t2.5 -73.5v-267h-87q-38 0 -58 19.5t-20 54.5z" />
<glyph unicode="&#xb6;" horiz-adv-x="1200" d="M35 1012q0 83 28 151.5t80 117t125.5 75.5t165.5 27h735v-149h-192v-1428h-155v1428h-234v-1428h-154v830q-92 0 -165.5 29.5t-125.5 80.5t-80 119.5t-28 146.5z" />
<glyph unicode="&#xb7;" horiz-adv-x="517" d="M113 573q0 31 11.5 57.5t31 46.5t46 31.5t56.5 11.5t57 -11.5t46.5 -31.5t31 -46.5t11.5 -57.5q0 -30 -11.5 -56.5t-31 -46t-46.5 -31t-57 -11.5t-56.5 11.5t-46 31t-31 46t-11.5 56.5z" />
<glyph unicode="&#xb8;" horiz-adv-x="629" d="M162 -314l17 54q6 17 22 17q6 0 13.5 -3.5t18.5 -7.5t25.5 -7.5t35.5 -3.5q40 0 60.5 16t20.5 41q0 37 -40.5 51.5t-114.5 24.5l52 157h100l-28 -97q90 -18 129.5 -52t39.5 -86q0 -31 -15.5 -56t-43 -42t-66.5 -26.5t-85 -9.5q-39 0 -75 8t-66 22z" />
<glyph unicode="&#xb9;" horiz-adv-x="504" d="M56 869zM56 1391l215 184h107v-622h124v-84h-394v84h142v420l4 42l-102 -83q-9 -7 -17.5 -8.5t-16 0t-14 5t-9.5 8.5z" />
<glyph unicode="&#xba;" horiz-adv-x="865" d="M133 1100q0 69 21.5 124.5t60.5 94t94.5 59.5t123.5 21t123 -21t94 -59.5t60.5 -94t21.5 -124.5t-21.5 -125t-60.5 -95t-94 -60t-123 -21t-123.5 21t-94.5 60t-60.5 95t-21.5 125zM271 1099q0 -96 39.5 -146t122.5 -50q81 0 121 50t40 146t-40 146t-121 50 q-83 0 -122.5 -50t-39.5 -146z" />
<glyph unicode="&#xbb;" horiz-adv-x="1049" d="M226 125zM230.5 182.5q-4.5 19.5 9.5 42.5l152 251q14 24 27 35q-13 12 -26 35l-152 252q-14 23 -10 42.5t27 30.5l57 27l241 -375v-23l-241 -375l-57 27q-23 11 -27.5 30.5zM555.5 182.5q-4.5 19.5 9.5 42.5l152 251q14 24 27 35q-13 12 -26 35l-152 252 q-14 23 -10 42.5t27 30.5l57 27l241 -375v-23l-241 -375l-57 27q-23 11 -27.5 30.5z" />
<glyph unicode="&#xbc;" horiz-adv-x="1303" d="M47 0zM47 1204l215 184h107v-622h124v-84h-394v84h142v420l4 42l-102 -83q-9 -7 -17.5 -8.5t-16 0t-14 5t-9.5 8.5zM93 0l987 1323q17 29 39.5 44.5t56.5 15.5h77l-992 -1331q-18 -31 -41 -41.5t-52 -10.5h-75zM715 252l329 452h122v-446h104v-64q0 -10 -6.5 -17.5 t-18.5 -7.5h-79v-169h-107v169h-293q-18 0 -28 7.5t-12 19.5zM835 258h224v230q0 18 1 39.5t5 44.5z" />
<glyph unicode="&#xbd;" horiz-adv-x="1375" d="M44 0zM44 1204l215 184h107v-622h124v-84h-394v84h142v420l4 42l-102 -83q-9 -7 -17.5 -8.5t-16 0t-14 5t-9.5 8.5zM84 0l987 1323q17 29 39.5 44.5t56.5 15.5h77l-992 -1331q-18 -31 -41 -41.5t-52 -10.5h-75zM796 0v42q0 13 5 27t16 25l213 211q48 48 81 99.5t33 102.5 q0 49 -28.5 75t-70.5 26q-43 0 -69.5 -23.5t-41.5 -62.5q-7 -18 -20.5 -25t-39.5 -2l-70 11q7 51 28 90t53.5 64.5t74.5 38.5t91 13q51 0 92 -14.5t70 -41t45 -63.5t16 -82q0 -39 -12 -72t-32.5 -63t-47 -58.5t-54.5 -57.5l-154 -157q23 6 46 10t43 4h184q20 0 31.5 -11 t11.5 -30v-76h-494z" />
<glyph unicode="&#xbe;" horiz-adv-x="1383" d="M99 0zM99 860l55 23q21 9 40 5t27 -21q4 -9 12 -24t22 -29.5t35.5 -24.5t53.5 -10q29 0 51.5 9.5t37.5 24.5t22.5 34t7.5 39q0 28 -8 49t-26.5 34.5t-49.5 20t-76 6.5v85q83 1 117.5 29.5t34.5 78.5q0 48 -28 73t-73 25t-72 -23t-41 -60q-8 -20 -19 -26.5t-37 -1.5 l-66 11q7 51 28.5 90t53 64.5t72 38.5t87.5 13q49 0 89.5 -14t68.5 -38.5t43.5 -58t15.5 -71.5q0 -123 -113 -167q63 -18 95.5 -55.5t32.5 -97.5q0 -53 -20 -94t-54 -68.5t-77.5 -41.5t-90.5 -14q-54 0 -94.5 12t-70.5 35.5t-50.5 58.5t-35.5 81zM153 0l987 1323 q17 29 39.5 44.5t56.5 15.5h77l-992 -1331q-18 -31 -41 -41.5t-52 -10.5h-75zM786 252l329 452h122v-446h104v-64q0 -10 -6.5 -17.5t-18.5 -7.5h-79v-169h-107v169h-293q-18 0 -28 7.5t-12 19.5zM906 258h224v230q0 18 1 39.5t5 44.5z" />
<glyph unicode="&#xbf;" horiz-adv-x="949" d="M133 -35q0 74 22 125t55 88t72.5 63t74 49t59 46.5t28.5 55.5l18 147h120l12 -160q3 -46 -17.5 -77.5t-53.5 -56.5t-72.5 -48t-73.5 -52t-57 -68.5t-23 -96.5q0 -42 16 -75t44.5 -56.5t66 -36t81.5 -12.5q58 0 100 14.5t71 31.5t47 31.5t30 14.5q24 0 37 -22l47 -74 q-30 -28 -66.5 -53.5t-79.5 -44.5t-93 -30t-108 -11q-77 0 -142.5 21t-113 61t-74.5 97t-27 129zM412 870q0 25 9.5 47.5t26 39.5t39 26.5t48.5 9.5q25 0 47.5 -9.5t39 -26.5t26 -39.5t9.5 -47.5q0 -26 -9.5 -48t-26 -38.5t-39 -25.5t-47.5 -9q-26 0 -48.5 9t-39 25.5 t-26 38.5t-9.5 48z" />
<glyph unicode="&#xc0;" horiz-adv-x="1185" d="M8 0l493 1314h185l492 -1314h-141q-24 0 -38.5 12t-22.5 30l-112 316h-542l-111 -315q-6 -17 -22.5 -30t-39.5 -13h-141zM8 0zM271 1710h188q31 0 48 -5t34 -27l219 -264h-126q-21 0 -34 2.5t-27 15.5zM368 488h450l-186 529q-10 24 -20 56t-19 69q-10 -38 -20 -70 t-19 -56z" />
<glyph unicode="&#xc1;" horiz-adv-x="1185" d="M8 0l493 1314h185l492 -1314h-141q-24 0 -38.5 12t-22.5 30l-112 316h-542l-111 -315q-6 -17 -22.5 -30t-39.5 -13h-141zM8 0zM368 488h450l-186 529q-10 24 -20 56t-19 69q-10 -38 -20 -70t-19 -56zM442 1414l220 264q9 10 17 16.5t17.5 10t21 4.5t27.5 1h198l-313 -277 q-15 -13 -28.5 -16t-33.5 -3h-126z" />
<glyph unicode="&#xc2;" horiz-adv-x="1185" d="M8 0l493 1314h185l492 -1314h-141q-24 0 -38.5 12t-22.5 30l-112 316h-542l-111 -315q-6 -17 -22.5 -30t-39.5 -13h-141zM8 0zM275 1415l230 262h158l230 -262h-128q-12 0 -28 4t-33 24l-111 134q-6 8 -12 17l-12 -16l-110 -135q-17 -20 -33.5 -24t-27.5 -4h-123z M368 488h450l-186 529q-10 24 -20 56t-19 69q-10 -38 -20 -70t-19 -56z" />
<glyph unicode="&#xc3;" horiz-adv-x="1185" d="M8 0l493 1314h185l492 -1314h-141q-24 0 -38.5 12t-22.5 30l-112 316h-542l-111 -315q-6 -17 -22.5 -30t-39.5 -13h-141zM8 0zM284 1417q0 42 12 80.5t34.5 68t56 47.5t75.5 18q44 0 78.5 -16t64 -35t55 -35t52.5 -16q22 0 39 8.5t28.5 22t17.5 31t6 34.5h107 q0 -42 -11.5 -80t-34 -67.5t-55.5 -47t-76 -17.5q-44 0 -78.5 16t-64 34.5t-55.5 34.5t-53 16q-22 0 -38.5 -8.5t-27.5 -22.5t-17 -31.5t-6 -34.5h-109zM368 488h450l-186 529q-10 24 -20 56t-19 69q-10 -38 -20 -70t-19 -56z" />
<glyph unicode="&#xc4;" horiz-adv-x="1185" d="M8 0l493 1314h185l492 -1314h-141q-24 0 -38.5 12t-22.5 30l-112 316h-542l-111 -315q-6 -17 -22.5 -30t-39.5 -13h-141zM8 0zM276 1531q0 23 8.5 43t23.5 35t35 24t43 9q22 0 42.5 -9t36 -24t24.5 -35t9 -43t-9 -43t-24.5 -35t-36 -23.5t-42.5 -8.5q-23 0 -43 8.5 t-35 23.5t-23.5 35t-8.5 43zM368 488h450l-186 529q-10 24 -20 56t-19 69q-10 -38 -20 -70t-19 -56zM680 1531q0 23 8.5 43t23.5 35t35 24t43 9q22 0 42.5 -9t36 -24t24.5 -35t9 -43t-9 -43t-24.5 -35t-36 -23.5t-42.5 -8.5q-23 0 -43 8.5t-35 23.5t-23.5 35t-8.5 43z" />
<glyph unicode="&#xc5;" horiz-adv-x="1185" d="M8 0l493 1314h185l492 -1314h-141q-24 0 -38.5 12t-22.5 30l-112 316h-542l-111 -315q-6 -17 -22.5 -30t-39.5 -13h-141zM8 0zM368 488h450l-186 529q-10 24 -20 56t-19 69q-10 -38 -20 -70t-19 -56zM408 1561q0 38 15 69.5t40 54.5t58 35.5t69 12.5q38 0 71.5 -12.5 t59 -35.5t40.5 -54.5t15 -69.5t-15 -69t-40.5 -53t-59 -34.5t-71.5 -12.5q-36 0 -69 12.5t-58 34.5t-40 53t-15 69zM495 1561q0 -42 26.5 -69t71.5 -27q42 0 68.5 27t26.5 69q0 44 -26.5 70.5t-68.5 26.5q-45 0 -71.5 -26.5t-26.5 -70.5z" />
<glyph unicode="&#xc6;" horiz-adv-x="1563" d="M-21 0l630 1314h871v-148h-615l49 -431h455v-143h-439l50 -444h500v-148h-654l-41 358h-455l-143 -316q-9 -19 -27 -30.5t-43 -11.5h-138zM389 488h381l-78 685q-12 -37 -24.5 -68.5t-26.5 -59.5z" />
<glyph unicode="&#xc7;" horiz-adv-x="1092" d="M67 657q0 149 42 272.5t118 212.5t182 138t234 49q127 0 223.5 -45t168.5 -122l-60 -84q-6 -9 -15 -15t-23 -6q-17 0 -37.5 18t-53.5 39.5t-82 39.5t-122 18q-86 0 -157.5 -35t-123 -101.5t-80 -162t-28.5 -216.5q0 -122 30 -218t82 -162t122.5 -101t151.5 -35 q50 0 89.5 7t73 21.5t63 37t58.5 53.5q16 14 31 14q14 0 26 -12l72 -78q-67 -88 -161 -139t-225 -58l-17 -59q90 -18 129.5 -52t39.5 -86q0 -31 -15.5 -56t-43 -42t-66.5 -26.5t-85 -9.5q-39 0 -75 8t-66 22l17 54q6 17 22 17q6 0 13.5 -3.5t18.5 -7.5t25.5 -7.5t35.5 -3.5 q40 0 60.5 16t20.5 41q0 37 -40.5 51.5t-114.5 24.5l40 122q-114 12 -206.5 65t-157 140.5t-99.5 204.5t-35 257z" />
<glyph unicode="&#xc8;" horiz-adv-x="1000" d="M145 0v1314h768v-148h-585v-431h471v-143h-471v-444h586l-1 -148h-768zM145 0zM236 1710h188q31 0 48 -5t34 -27l219 -264h-126q-21 0 -34 2.5t-27 15.5z" />
<glyph unicode="&#xc9;" horiz-adv-x="1000" d="M145 0v1314h768v-148h-585v-431h471v-143h-471v-444h586l-1 -148h-768zM145 0zM382 1414l220 264q9 10 17 16.5t17.5 10t21 4.5t27.5 1h198l-313 -277q-15 -13 -28.5 -16t-33.5 -3h-126z" />
<glyph unicode="&#xca;" horiz-adv-x="1000" d="M145 0v1314h768v-148h-585v-431h471v-143h-471v-444h586l-1 -148h-768zM145 0zM241 1414l230 262h158l230 -262h-128q-12 0 -28 4t-33 24l-111 134q-6 8 -12 17l-12 -16l-110 -135q-17 -20 -33.5 -24t-27.5 -4h-123z" />
<glyph unicode="&#xcb;" horiz-adv-x="1000" d="M145 0v1314h768v-148h-585v-431h471v-143h-471v-444h586l-1 -148h-768zM145 0zM230 1531q0 23 8.5 43t23.5 35t35 24t43 9q22 0 42.5 -9t36 -24t24.5 -35t9 -43t-9 -43t-24.5 -35t-36 -23.5t-42.5 -8.5q-23 0 -43 8.5t-35 23.5t-23.5 35t-8.5 43zM634 1531q0 23 8.5 43 t23.5 35t35 24t43 9q22 0 42.5 -9t36 -24t24.5 -35t9 -43t-9 -43t-24.5 -35t-36 -23.5t-42.5 -8.5q-23 0 -43 8.5t-35 23.5t-23.5 35t-8.5 43z" />
<glyph unicode="&#xcc;" horiz-adv-x="516" d="M-55 1710h188q31 0 48 -5t34 -27l219 -264h-126q-21 0 -34 2.5t-27 15.5zM0 0zM167 0v1314h182v-1314h-182z" />
<glyph unicode="&#xcd;" horiz-adv-x="516" d="M101 0zM101 1414l220 264q9 10 17 16.5t17.5 10t21 4.5t27.5 1h198l-313 -277q-15 -13 -28.5 -16t-33.5 -3h-126zM167 0v1314h182v-1314h-182z" />
<glyph unicode="&#xce;" horiz-adv-x="516" d="M-58 1415l230 262h158l230 -262h-128q-12 0 -28 4t-33 24l-111 134q-6 8 -12 17l-12 -16l-110 -135q-17 -20 -33.5 -24t-27.5 -4h-123zM0 0zM167 0v1314h182v-1314h-182z" />
<glyph unicode="&#xcf;" horiz-adv-x="516" d="M-57 1531q0 23 8.5 43t23.5 35t35 24t43 9q22 0 42.5 -9t36 -24t24.5 -35t9 -43t-9 -43t-24.5 -35t-36 -23.5t-42.5 -8.5q-23 0 -43 8.5t-35 23.5t-23.5 35t-8.5 43zM0 0zM167 0v1314h182v-1314h-182zM347 1531q0 23 8.5 43t23.5 35t35 24t43 9q22 0 42.5 -9t36 -24 t24.5 -35t9 -43t-9 -43t-24.5 -35t-36 -23.5t-42.5 -8.5q-23 0 -43 8.5t-35 23.5t-23.5 35t-8.5 43z" />
<glyph unicode="&#xd0;" horiz-adv-x="1279" d="M42 0zM42 610v106h154v598h439q130 0 236.5 -47.5t183 -133.5t118.5 -207.5t42 -268.5q0 -148 -42 -269t-118.5 -207.5t-183 -133.5t-236.5 -47h-439v610h-154zM380 147h255q90 0 163 34.5t124 100t78.5 160.5t27.5 215t-27.5 214.5t-78.5 160.5t-124 100.5t-163 34.5 h-255v-451h225v-106h-225v-463z" />
<glyph unicode="&#xd1;" horiz-adv-x="1322" d="M148 0v1314h95q23 0 35 -5.5t27 -25.5l714 -983q-2 24 -3.5 47.5t-1.5 43.5v923h160v-1314h-92q-21 0 -35.5 7t-28.5 25l-714 980q2 -23 3 -44t1 -40v-928h-160zM148 0zM378 1417q0 42 12 80.5t34.5 68t56 47.5t75.5 18q44 0 78.5 -16t64 -35t55 -35t52.5 -16 q22 0 39 8.5t28.5 22t17.5 31t6 34.5h107q0 -42 -11.5 -80t-34 -67.5t-55.5 -47t-76 -17.5q-44 0 -78.5 16t-64 34.5t-55.5 34.5t-53 16q-22 0 -38.5 -8.5t-27.5 -22.5t-17 -31.5t-6 -34.5h-109z" />
<glyph unicode="&#xd2;" horiz-adv-x="1356" d="M72 0zM72 657q0 147 44 270.5t124 213t192 139t247 49.5q136 0 247.5 -49.5t191 -139t123 -213t43.5 -270.5q0 -148 -43.5 -271t-123 -212t-191 -138.5t-247.5 -49.5q-135 0 -247 49.5t-192 138.5t-124 212t-44 271zM259 657q0 -120 29.5 -215.5t84.5 -162t132.5 -101.5 t173.5 -35t173.5 35t132 101.5t84 162t29.5 215.5t-29.5 215.5t-84 162t-132 102t-173.5 35.5t-173.5 -35.5t-132.5 -102t-84.5 -162t-29.5 -215.5zM367 1710h188q31 0 48 -5t34 -27l219 -264h-126q-21 0 -34 2.5t-27 15.5z" />
<glyph unicode="&#xd3;" horiz-adv-x="1356" d="M72 0zM72 657q0 147 44 270.5t124 213t192 139t247 49.5q136 0 247.5 -49.5t191 -139t123 -213t43.5 -270.5q0 -148 -43.5 -271t-123 -212t-191 -138.5t-247.5 -49.5q-135 0 -247 49.5t-192 138.5t-124 212t-44 271zM259 657q0 -120 29.5 -215.5t84.5 -162t132.5 -101.5 t173.5 -35t173.5 35t132 101.5t84 162t29.5 215.5t-29.5 215.5t-84 162t-132 102t-173.5 35.5t-173.5 -35.5t-132.5 -102t-84.5 -162t-29.5 -215.5zM516 1414l220 264q9 10 17 16.5t17.5 10t21 4.5t27.5 1h198l-313 -277q-15 -13 -28.5 -16t-33.5 -3h-126z" />
<glyph unicode="&#xd4;" horiz-adv-x="1356" d="M72 0zM72 657q0 147 44 270.5t124 213t192 139t247 49.5q136 0 247.5 -49.5t191 -139t123 -213t43.5 -270.5q0 -148 -43.5 -271t-123 -212t-191 -138.5t-247.5 -49.5q-135 0 -247 49.5t-192 138.5t-124 212t-44 271zM259 657q0 -120 29.5 -215.5t84.5 -162t132.5 -101.5 t173.5 -35t173.5 35t132 101.5t84 162t29.5 215.5t-29.5 215.5t-84 162t-132 102t-173.5 35.5t-173.5 -35.5t-132.5 -102t-84.5 -162t-29.5 -215.5zM361 1415l230 262h158l230 -262h-128q-12 0 -28 4t-33 24l-111 134q-6 8 -12 17l-12 -16l-110 -135q-17 -20 -33.5 -24 t-27.5 -4h-123z" />
<glyph unicode="&#xd5;" horiz-adv-x="1356" d="M72 0zM72 657q0 147 44 270.5t124 213t192 139t247 49.5q136 0 247.5 -49.5t191 -139t123 -213t43.5 -270.5q0 -148 -43.5 -271t-123 -212t-191 -138.5t-247.5 -49.5q-135 0 -247 49.5t-192 138.5t-124 212t-44 271zM259 657q0 -120 29.5 -215.5t84.5 -162t132.5 -101.5 t173.5 -35t173.5 35t132 101.5t84 162t29.5 215.5t-29.5 215.5t-84 162t-132 102t-173.5 35.5t-173.5 -35.5t-132.5 -102t-84.5 -162t-29.5 -215.5zM370 1417q0 42 12 80.5t34.5 68t56 47.5t75.5 18q44 0 78.5 -16t64 -35t55 -35t52.5 -16q22 0 39 8.5t28.5 22t17.5 31 t6 34.5h107q0 -42 -11.5 -80t-34 -67.5t-55.5 -47t-76 -17.5q-44 0 -78.5 16t-64 34.5t-55.5 34.5t-53 16q-22 0 -38.5 -8.5t-27.5 -22.5t-17 -31.5t-6 -34.5h-109z" />
<glyph unicode="&#xd6;" horiz-adv-x="1356" d="M72 0zM72 657q0 147 44 270.5t124 213t192 139t247 49.5q136 0 247.5 -49.5t191 -139t123 -213t43.5 -270.5q0 -148 -43.5 -271t-123 -212t-191 -138.5t-247.5 -49.5q-135 0 -247 49.5t-192 138.5t-124 212t-44 271zM259 657q0 -120 29.5 -215.5t84.5 -162t132.5 -101.5 t173.5 -35t173.5 35t132 101.5t84 162t29.5 215.5t-29.5 215.5t-84 162t-132 102t-173.5 35.5t-173.5 -35.5t-132.5 -102t-84.5 -162t-29.5 -215.5zM362 1531q0 23 8.5 43t23.5 35t35 24t43 9q22 0 42.5 -9t36 -24t24.5 -35t9 -43t-9 -43t-24.5 -35t-36 -23.5t-42.5 -8.5 q-23 0 -43 8.5t-35 23.5t-23.5 35t-8.5 43zM766 1531q0 23 8.5 43t23.5 35t35 24t43 9q22 0 42.5 -9t36 -24t24.5 -35t9 -43t-9 -43t-24.5 -35t-36 -23.5t-42.5 -8.5q-23 0 -43 8.5t-35 23.5t-23.5 35t-8.5 43z" />
<glyph unicode="&#xd7;" d="M72 304l343 343l-332 332l93 95l332 -333l331 331l94 -95l-330 -330l341 -341l-94 -93l-341 340l-343 -342z" />
<glyph unicode="&#xd8;" horiz-adv-x="1359" d="M73 657q0 147 44 270.5t124 213t192 139t247 49.5q97 0 181.5 -25.5t154.5 -73.5l66 97q9 13 16.5 22t15.5 14.5t19 8t26 2.5h94l-148 -218q87 -91 134.5 -217.5t47.5 -281.5q0 -148 -44 -271t-123.5 -212t-191.5 -138.5t-248 -49.5q-90 0 -168 21.5t-145 62.5l-81 -119 q-20 -28 -48 -39.5t-55 -11.5h-72l163 240q-96 90 -148.5 221.5t-52.5 295.5zM259 657q0 -120 29 -214t83 -161l553 813q-50 38 -111 57.5t-133 19.5q-96 0 -174 -35.5t-132.5 -102t-84.5 -162t-30 -215.5zM458 204q95 -61 222 -61q96 0 174 35t132.5 101.5t84 162 t29.5 215.5q0 109 -24.5 197.5t-70.5 154.5z" />
<glyph unicode="&#xd9;" horiz-adv-x="1314" d="M140 0zM140 516v798h182v-797q0 -82 22.5 -150.5t65.5 -118t105.5 -77t141.5 -27.5t141.5 27.5t105.5 77t65.5 117.5t22.5 150v798h182v-798q0 -114 -36 -211t-102.5 -168t-162.5 -111.5t-216 -40.5t-215.5 40.5t-162.5 111.5t-103 168t-36 211zM342 1710h188q31 0 48 -5 t34 -27l219 -264h-126q-21 0 -34 2.5t-27 15.5z" />
<glyph unicode="&#xda;" horiz-adv-x="1314" d="M140 0zM140 516v798h182v-797q0 -82 22.5 -150.5t65.5 -118t105.5 -77t141.5 -27.5t141.5 27.5t105.5 77t65.5 117.5t22.5 150v798h182v-798q0 -114 -36 -211t-102.5 -168t-162.5 -111.5t-216 -40.5t-215.5 40.5t-162.5 111.5t-103 168t-36 211zM499 1414l220 264 q9 10 17 16.5t17.5 10t21 4.5t27.5 1h198l-313 -277q-15 -13 -28.5 -16t-33.5 -3h-126z" />
<glyph unicode="&#xdb;" horiz-adv-x="1314" d="M140 0zM140 516v798h182v-797q0 -82 22.5 -150.5t65.5 -118t105.5 -77t141.5 -27.5t141.5 27.5t105.5 77t65.5 117.5t22.5 150v798h182v-798q0 -114 -36 -211t-102.5 -168t-162.5 -111.5t-216 -40.5t-215.5 40.5t-162.5 111.5t-103 168t-36 211zM339 1415l230 262h158 l230 -262h-128q-12 0 -28 4t-33 24l-111 134q-6 8 -12 17l-12 -16l-110 -135q-17 -20 -33.5 -24t-27.5 -4h-123z" />
<glyph unicode="&#xdc;" horiz-adv-x="1314" d="M140 0zM140 516v798h182v-797q0 -82 22.5 -150.5t65.5 -118t105.5 -77t141.5 -27.5t141.5 27.5t105.5 77t65.5 117.5t22.5 150v798h182v-798q0 -114 -36 -211t-102.5 -168t-162.5 -111.5t-216 -40.5t-215.5 40.5t-162.5 111.5t-103 168t-36 211zM340 1531q0 23 8.5 43 t23.5 35t35 24t43 9q22 0 42.5 -9t36 -24t24.5 -35t9 -43t-9 -43t-24.5 -35t-36 -23.5t-42.5 -8.5q-23 0 -43 8.5t-35 23.5t-23.5 35t-8.5 43zM744 1531q0 23 8.5 43t23.5 35t35 24t43 9q22 0 42.5 -9t36 -24t24.5 -35t9 -43t-9 -43t-24.5 -35t-36 -23.5t-42.5 -8.5 q-23 0 -43 8.5t-35 23.5t-23.5 35t-8.5 43z" />
<glyph unicode="&#xdd;" horiz-adv-x="998" d="M0 0zM0 1314h160q23 0 37.5 -11.5t24.5 -30.5l225 -507q17 -31 30 -58.5t23 -54.5q10 27 22.5 54.5t29.5 57.5l223 508q8 15 23 28.5t38 13.5h162l-408 -789v-525h-182v523zM338 1414l220 264q9 10 17 16.5t17.5 10t21 4.5t27.5 1h198l-313 -277q-15 -13 -28.5 -16 t-33.5 -3h-126z" />
<glyph unicode="&#xde;" horiz-adv-x="1058" d="M148 0v1314h182v-241h196q120 0 209 -29t147 -82t86.5 -128.5t28.5 -168.5q0 -92 -30.5 -168t-90 -131.5t-147.5 -86t-203 -30.5h-196v-249h-182zM330 393h196q71 0 125 20t90.5 56t55 86t18.5 110q0 125 -71.5 195t-217.5 70h-196v-537z" />
<glyph unicode="&#xdf;" horiz-adv-x="1080" d="M131 0v956q0 100 32 183t90.5 141.5t141.5 91t185 32.5q96 0 166 -29t115 -74t66.5 -98.5t21.5 -102.5q0 -57 -19 -99t-47.5 -73.5t-62 -56t-62 -47t-47.5 -47t-19 -55.5q0 -38 24 -63t59.5 -46.5t77 -44.5t77 -56.5t59.5 -83t24 -124.5t-26.5 -134t-72.5 -100.5 t-108 -63t-134 -21.5q-87 0 -160 33t-127 85l41 67q8 13 18.5 20t27.5 7q18 0 36 -13.5t42.5 -30t57 -30t79.5 -13.5q37 0 67 12.5t51 35t32 53t11 65.5q0 54 -25 87.5t-63 58t-82 45.5t-82 48.5t-63 68t-25 104.5q0 52 20 89.5t50 68t65.5 56.5t65.5 54.5t50 62.5t20 81 q0 31 -11 62t-36 56t-64 41t-95 16q-61 0 -110 -20.5t-83.5 -61t-53.5 -101t-19 -141.5v-951h-176z" />
<glyph unicode="&#xe0;" horiz-adv-x="981" d="M84 0zM84 244q0 58 31.5 111.5t102.5 95.5t185 68.5t280 30.5v75q0 114 -48.5 171.5t-141.5 57.5q-62 0 -104.5 -16t-73.5 -35t-53.5 -35t-45.5 -16q-18 0 -31 9t-21 23l-32 56q81 78 174.5 116.5t207.5 38.5q82 0 146 -26.5t107 -75.5t65.5 -117t22.5 -151v-625h-78 q-26 0 -40 8t-19 33l-22 91q-38 -35 -74.5 -62.5t-76.5 -46.5t-86 -28.5t-101 -9.5q-57 0 -106.5 15.5t-87 48t-59 81t-21.5 114.5zM253 253q0 -38 12.5 -65.5t33.5 -45t50 -26t62 -8.5q44 0 81 9t70 25.5t62.5 41t58.5 54.5v202q-117 -5 -199 -19.5t-133.5 -38.5 t-74.5 -56.5t-23 -72.5zM257 1399h166q32 0 48 -10.5t29 -32.5l143 -233h-100q-20 0 -33 6t-27 21z" />
<glyph unicode="&#xe1;" horiz-adv-x="981" d="M84 0zM84 244q0 58 31.5 111.5t102.5 95.5t185 68.5t280 30.5v75q0 114 -48.5 171.5t-141.5 57.5q-62 0 -104.5 -16t-73.5 -35t-53.5 -35t-45.5 -16q-18 0 -31 9t-21 23l-32 56q81 78 174.5 116.5t207.5 38.5q82 0 146 -26.5t107 -75.5t65.5 -117t22.5 -151v-625h-78 q-26 0 -40 8t-19 33l-22 91q-38 -35 -74.5 -62.5t-76.5 -46.5t-86 -28.5t-101 -9.5q-57 0 -106.5 15.5t-87 48t-59 81t-21.5 114.5zM253 253q0 -38 12.5 -65.5t33.5 -45t50 -26t62 -8.5q44 0 81 9t70 25.5t62.5 41t58.5 54.5v202q-117 -5 -199 -19.5t-133.5 -38.5 t-74.5 -56.5t-23 -72.5zM345 1123l143 233q13 22 29 32.5t48 10.5h172l-226 -249q-14 -15 -27.5 -21t-33.5 -6h-105z" />
<glyph unicode="&#xe2;" horiz-adv-x="981" d="M84 244q0 58 31.5 111.5t102.5 95.5t185 68.5t280 30.5v75q0 114 -48.5 171.5t-141.5 57.5q-62 0 -104.5 -16t-73.5 -35t-53.5 -35t-45.5 -16q-18 0 -31 9t-21 23l-32 56q81 78 174.5 116.5t207.5 38.5q82 0 146 -26.5t107 -75.5t65.5 -117t22.5 -151v-625h-78 q-26 0 -40 8t-19 33l-22 91q-38 -35 -74.5 -62.5t-76.5 -46.5t-86 -28.5t-101 -9.5q-57 0 -106.5 15.5t-87 48t-59 81t-21.5 114.5zM189 1128l217 255h162l218 -255h-118q-11 0 -22 4t-22 15l-118 125q-5 4 -8.5 9t-8.5 10q-8 -11 -15 -18l-119 -126q-18 -19 -44 -19h-122z M253 253q0 -38 12.5 -65.5t33.5 -45t50 -26t62 -8.5q44 0 81 9t70 25.5t62.5 41t58.5 54.5v202q-117 -5 -199 -19.5t-133.5 -38.5t-74.5 -56.5t-23 -72.5z" />
<glyph unicode="&#xe3;" horiz-adv-x="981" d="M84 0zM84 244q0 58 31.5 111.5t102.5 95.5t185 68.5t280 30.5v75q0 114 -48.5 171.5t-141.5 57.5q-62 0 -104.5 -16t-73.5 -35t-53.5 -35t-45.5 -16q-18 0 -31 9t-21 23l-32 56q81 78 174.5 116.5t207.5 38.5q82 0 146 -26.5t107 -75.5t65.5 -117t22.5 -151v-625h-78 q-26 0 -40 8t-19 33l-22 91q-38 -35 -74.5 -62.5t-76.5 -46.5t-86 -28.5t-101 -9.5q-57 0 -106.5 15.5t-87 48t-59 81t-21.5 114.5zM210 1160q0 46 13 84.5t36 66t55 42.5t70 15q34 0 63.5 -14t55.5 -30.5t49 -30t45 -13.5q42 0 61.5 20t31.5 63h86q0 -46 -12.5 -84 t-35 -65.5t-54.5 -42.5t-71 -15q-33 0 -62.5 13.5t-55.5 30t-49.5 30.5t-45.5 14q-42 0 -65 -23t-31 -61h-84zM253 253q0 -38 12.5 -65.5t33.5 -45t50 -26t62 -8.5q44 0 81 9t70 25.5t62.5 41t58.5 54.5v202q-117 -5 -199 -19.5t-133.5 -38.5t-74.5 -56.5t-23 -72.5z" />
<glyph unicode="&#xe4;" horiz-adv-x="981" d="M84 0zM84 244q0 58 31.5 111.5t102.5 95.5t185 68.5t280 30.5v75q0 114 -48.5 171.5t-141.5 57.5q-62 0 -104.5 -16t-73.5 -35t-53.5 -35t-45.5 -16q-18 0 -31 9t-21 23l-32 56q81 78 174.5 116.5t207.5 38.5q82 0 146 -26.5t107 -75.5t65.5 -117t22.5 -151v-625h-78 q-26 0 -40 8t-19 33l-22 91q-38 -35 -74.5 -62.5t-76.5 -46.5t-86 -28.5t-101 -9.5q-57 0 -106.5 15.5t-87 48t-59 81t-21.5 114.5zM190 1244q0 23 8.5 43t23.5 35t35 24t43 9q22 0 42.5 -9t36 -24t24.5 -35t9 -43t-9 -43t-24.5 -35t-36 -23.5t-42.5 -8.5q-23 0 -43 8.5 t-35 23.5t-23.5 35t-8.5 43zM253 253q0 -38 12.5 -65.5t33.5 -45t50 -26t62 -8.5q44 0 81 9t70 25.5t62.5 41t58.5 54.5v202q-117 -5 -199 -19.5t-133.5 -38.5t-74.5 -56.5t-23 -72.5zM560 1244q0 23 8.5 43t23.5 35t35 24t43 9q22 0 42.5 -9t36 -24t24.5 -35t9 -43t-9 -43 t-24.5 -35t-36 -23.5t-42.5 -8.5q-23 0 -43 8.5t-35 23.5t-23.5 35t-8.5 43z" />
<glyph unicode="&#xe5;" horiz-adv-x="981" d="M84 0zM84 244q0 58 31.5 111.5t102.5 95.5t185 68.5t280 30.5v75q0 114 -48.5 171.5t-141.5 57.5q-62 0 -104.5 -16t-73.5 -35t-53.5 -35t-45.5 -16q-18 0 -31 9t-21 23l-32 56q81 78 174.5 116.5t207.5 38.5q82 0 146 -26.5t107 -75.5t65.5 -117t22.5 -151v-625h-78 q-26 0 -40 8t-19 33l-22 91q-38 -35 -74.5 -62.5t-76.5 -46.5t-86 -28.5t-101 -9.5q-57 0 -106.5 15.5t-87 48t-59 81t-21.5 114.5zM253 253q0 -38 12.5 -65.5t33.5 -45t50 -26t62 -8.5q44 0 81 9t70 25.5t62.5 41t58.5 54.5v202q-117 -5 -199 -19.5t-133.5 -38.5 t-74.5 -56.5t-23 -72.5zM293 1269q0 40 15.5 73.5t42 57.5t61.5 37.5t74 13.5t74.5 -13.5t62.5 -37.5t42.5 -57.5t15.5 -73.5q0 -39 -15.5 -72t-42.5 -56.5t-62.5 -36.5t-74.5 -13t-74 13t-61.5 36.5t-42 56.5t-15.5 72zM391 1269q0 -42 26 -69t71 -27q42 0 68.5 27t26.5 69 q0 44 -26.5 70.5t-68.5 26.5q-45 0 -71 -26.5t-26 -70.5z" />
<glyph unicode="&#xe6;" horiz-adv-x="1583" d="M86 258q0 58 31.5 114t103 100t187 73t283.5 33v47q0 114 -48.5 174.5t-144.5 60.5q-63 0 -106.5 -17t-74.5 -37t-54 -37t-46 -17q-18 0 -31 9t-21 23l-32 56q82 78 170 116.5t198 38.5q116 0 187.5 -49t103.5 -134q52 84 137 132.5t202 48.5q79 0 148 -31t120 -89.5 t80 -143t29 -192.5q0 -41 -8 -55t-33 -14h-610q8 -174 85 -259t202 -85q67 0 112 14t74.5 31t48 31t33.5 14q14 0 22.5 -4.5t14.5 -12.5l46 -60q-32 -39 -74.5 -67.5t-90.5 -47t-100 -27.5t-102 -9q-113 0 -206 54.5t-147 165.5q-26 -60 -68 -102t-93.5 -68.5t-109.5 -38.5 t-115 -12q-68 0 -123.5 17t-95.5 50.5t-62 85t-22 120.5zM255 267q0 -83 48 -121t126 -38q55 0 103 17.5t83 52.5t55.5 87.5t20.5 123.5v79q-119 -5 -202 -22t-135 -43.5t-75.5 -61t-23.5 -74.5zM859 577h493q0 62 -15.5 115t-45 91.5t-71.5 60t-96 21.5q-59 0 -105.5 -20 t-80 -57.5t-53.5 -90.5t-26 -120z" />
<glyph unicode="&#xe7;" horiz-adv-x="866" d="M69 490q0 109 29 201.5t84.5 159.5t137 104.5t187.5 37.5q100 0 175 -33.5t133 -93.5l-46 -64q-8 -11 -15.5 -16.5t-21.5 -5.5q-15 0 -31 12t-40 26.5t-58.5 26.5t-84.5 12q-66 0 -116.5 -25.5t-84 -73t-51 -115.5t-17.5 -153q0 -88 18.5 -156.5t52.5 -115.5t82 -71.5 t108 -24.5q58 0 95 15t62 33t41.5 33t34.5 15q20 0 32 -17l51 -64q-54 -68 -130 -104t-161 -44l-17 -61q85 -18 122 -52t37 -86q0 -31 -14.5 -56t-41.5 -42t-64 -26.5t-82 -9.5q-37 0 -71 8t-63 22l17 54q6 17 23 17q6 0 12.5 -3.5t16.5 -7.5t23.5 -7.5t31.5 -3.5 q36 0 55 16t19 41q0 37 -37 51.5t-107 24.5l38 121q-78 8 -144.5 45.5t-115.5 101.5t-76.5 153t-27.5 201z" />
<glyph unicode="&#xe8;" horiz-adv-x="1019" d="M75 0zM75 509q0 102 31.5 190.5t91 154t145 102.5t192.5 37q88 0 163 -29t130 -85t86 -137t31 -186q0 -41 -9 -54.5t-33 -13.5h-654q2 -92 25 -160.5t63.5 -113.5t96.5 -67.5t125 -22.5q64 0 111 14.5t80.5 32.5t56.5 32.5t40 14.5q11 0 19 -4.5t14 -12.5l50 -64 q-33 -39 -77.5 -67.5t-95.5 -47t-105.5 -27.5t-107.5 -9q-102 0 -188 34t-148.5 100.5t-97.5 164t-35 224.5zM254 596h533q0 59 -17 108.5t-49 85t-78.5 55.5t-104.5 20q-123 0 -194.5 -72t-89.5 -197zM306 1399h166q32 0 48 -10.5t29 -32.5l143 -233h-100q-20 0 -33 6 t-27 21z" />
<glyph unicode="&#xe9;" horiz-adv-x="1019" d="M75 0zM75 509q0 102 31.5 190.5t91 154t145 102.5t192.5 37q88 0 163 -29t130 -85t86 -137t31 -186q0 -41 -9 -54.5t-33 -13.5h-654q2 -92 25 -160.5t63.5 -113.5t96.5 -67.5t125 -22.5q64 0 111 14.5t80.5 32.5t56.5 32.5t40 14.5q11 0 19 -4.5t14 -12.5l50 -64 q-33 -39 -77.5 -67.5t-95.5 -47t-105.5 -27.5t-107.5 -9q-102 0 -188 34t-148.5 100.5t-97.5 164t-35 224.5zM254 596h533q0 59 -17 108.5t-49 85t-78.5 55.5t-104.5 20q-123 0 -194.5 -72t-89.5 -197zM393 1123l143 233q13 22 29 32.5t48 10.5h172l-226 -249 q-14 -15 -27.5 -21t-33.5 -6h-105z" />
<glyph unicode="&#xea;" horiz-adv-x="1019" d="M75 509q0 102 31.5 190.5t91 154t145 102.5t192.5 37q88 0 163 -29t130 -85t86 -137t31 -186q0 -41 -9 -54.5t-33 -13.5h-654q2 -92 25 -160.5t63.5 -113.5t96.5 -67.5t125 -22.5q64 0 111 14.5t80.5 32.5t56.5 32.5t40 14.5q11 0 19 -4.5t14 -12.5l50 -64 q-33 -39 -77.5 -67.5t-95.5 -47t-105.5 -27.5t-107.5 -9q-102 0 -188 34t-148.5 100.5t-97.5 164t-35 224.5zM237 1128l217 255h162l218 -255h-118q-11 0 -22 4t-22 15l-118 125q-5 4 -8.5 9t-8.5 10q-8 -11 -15 -18l-119 -126q-18 -19 -44 -19h-122zM254 596h533 q0 59 -17 108.5t-49 85t-78.5 55.5t-104.5 20q-123 0 -194.5 -72t-89.5 -197z" />
<glyph unicode="&#xeb;" horiz-adv-x="1019" d="M75 0zM75 509q0 102 31.5 190.5t91 154t145 102.5t192.5 37q88 0 163 -29t130 -85t86 -137t31 -186q0 -41 -9 -54.5t-33 -13.5h-654q2 -92 25 -160.5t63.5 -113.5t96.5 -67.5t125 -22.5q64 0 111 14.5t80.5 32.5t56.5 32.5t40 14.5q11 0 19 -4.5t14 -12.5l50 -64 q-33 -39 -77.5 -67.5t-95.5 -47t-105.5 -27.5t-107.5 -9q-102 0 -188 34t-148.5 100.5t-97.5 164t-35 224.5zM239 1244q0 23 8.5 43t23.5 35t35 24t43 9q22 0 42.5 -9t36 -24t24.5 -35t9 -43t-9 -43t-24.5 -35t-36 -23.5t-42.5 -8.5q-23 0 -43 8.5t-35 23.5t-23.5 35 t-8.5 43zM254 596h533q0 59 -17 108.5t-49 85t-78.5 55.5t-104.5 20q-123 0 -194.5 -72t-89.5 -197zM609 1244q0 23 8.5 43t23.5 35t35 24t43 9q22 0 42.5 -9t36 -24t24.5 -35t9 -43t-9 -43t-24.5 -35t-36 -23.5t-42.5 -8.5q-23 0 -43 8.5t-35 23.5t-23.5 35t-8.5 43z" />
<glyph unicode="&#xec;" horiz-adv-x="470" d="M-74 1399h166q32 0 48 -10.5t29 -32.5l143 -233h-100q-20 0 -33 6t-27 21zM0 0zM147 0v978h176v-978h-176z" />
<glyph unicode="&#xed;" horiz-adv-x="470" d="M147 0v978h176v-978h-176zM147 0zM152 1123l143 233q13 22 29 32.5t48 10.5h172l-226 -249q-14 -15 -27.5 -21t-33.5 -6h-105z" />
<glyph unicode="&#xee;" horiz-adv-x="470" d="M-64 1128l217 255h162l218 -255h-118q-11 0 -22 4t-22 15l-118 125q-5 4 -8.5 9t-8.5 10q-8 -11 -15 -18l-119 -126q-18 -19 -44 -19h-122zM147 0v978h176v-978h-176z" />
<glyph unicode="&#xef;" horiz-adv-x="470" d="M-29 1244q0 23 8.5 43t23.5 35t35 24t43 9q22 0 42.5 -9t36 -24t24.5 -35t9 -43t-9 -43t-24.5 -35t-36 -23.5t-42.5 -8.5q-23 0 -43 8.5t-35 23.5t-23.5 35t-8.5 43zM0 0zM147 0v978h176v-978h-176zM274 1244q0 23 8.5 43t23.5 35t35 24t43 9q22 0 42.5 -9t36 -24 t24.5 -35t9 -43t-9 -43t-24.5 -35t-36 -23.5t-42.5 -8.5q-23 0 -43 8.5t-35 23.5t-23.5 35t-8.5 43z" />
<glyph unicode="&#xf0;" horiz-adv-x="1076" d="M75 450q0 90 30 171t86 142t136 96.5t180 35.5q97 0 181.5 -41t146.5 -123q-20 130 -75 220t-147 152l-177 -130l-34 55q-11 18 -7 34t21 28l99 67q-43 20 -91 35.5t-102 29.5q-23 5 -36.5 26.5t-1.5 56.5l21 61q93 -15 180 -44t165 -76l161 117l35 -56q11 -17 6.5 -33 t-20.5 -27l-93 -63q58 -47 105.5 -107.5t81.5 -135t52.5 -164t18.5 -194.5q0 -138 -30 -248.5t-89.5 -187.5t-148 -118.5t-204.5 -41.5q-95 0 -177 31.5t-143 91.5t-95.5 146t-34.5 194zM250 449q0 -78 22 -139t60 -102.5t89 -63t108 -21.5q136 0 216.5 103.5t86.5 315.5 q-15 42 -40 81t-61 69.5t-83 48.5t-107 18q-72 0 -126 -24t-91 -66t-55.5 -98.5t-18.5 -121.5z" />
<glyph unicode="&#xf1;" horiz-adv-x="1076" d="M140 0v978h105q19 0 31 -8.5t14 -27.5l15 -104q63 70 141 112.5t180 42.5q80 0 140.5 -26.5t101.5 -75t62 -117t21 -151.5v-623h-176v623q0 109 -49.5 170t-150.5 61q-75 0 -140 -35.5t-119 -98.5v-720h-176zM140 0zM258 1160q0 46 13 84.5t36 66t55 42.5t70 15 q34 0 63.5 -14t55.5 -30.5t49 -30t45 -13.5q42 0 61.5 20t31.5 63h86q0 -46 -12.5 -84t-35 -65.5t-54.5 -42.5t-71 -15q-33 0 -62.5 13.5t-55.5 30t-49.5 30.5t-45.5 14q-42 0 -65 -23t-31 -61h-84z" />
<glyph unicode="&#xf2;" horiz-adv-x="1080" d="M75 0zM75 490q0 115 32.5 208t93 158.5t147 101t193.5 35.5t193 -35.5t146 -101t92.5 -158.5t32.5 -208q0 -116 -32.5 -209t-92.5 -158.5t-146 -101t-193 -35.5t-193.5 35.5t-147 101t-93 158.5t-32.5 209zM256 489q0 -87 17.5 -155t53 -115t89 -71.5t125.5 -24.5 q71 0 124 24.5t88.5 71.5t53 115t17.5 155t-17.5 155t-53 115t-88.5 72t-124 25q-72 0 -125.5 -25t-89 -72t-53 -115t-17.5 -155zM312 1399h166q32 0 48 -10.5t29 -32.5l143 -233h-100q-20 0 -33 6t-27 21z" />
<glyph unicode="&#xf3;" horiz-adv-x="1080" d="M75 0zM75 490q0 115 32.5 208t93 158.5t147 101t193.5 35.5t193 -35.5t146 -101t92.5 -158.5t32.5 -208q0 -116 -32.5 -209t-92.5 -158.5t-146 -101t-193 -35.5t-193.5 35.5t-147 101t-93 158.5t-32.5 209zM256 489q0 -87 17.5 -155t53 -115t89 -71.5t125.5 -24.5 q71 0 124 24.5t88.5 71.5t53 115t17.5 155t-17.5 155t-53 115t-88.5 72t-124 25q-72 0 -125.5 -25t-89 -72t-53 -115t-17.5 -155zM399 1123l143 233q13 22 29 32.5t48 10.5h172l-226 -249q-14 -15 -27.5 -21t-33.5 -6h-105z" />
<glyph unicode="&#xf4;" horiz-adv-x="1080" d="M75 490q0 115 32.5 208t93 158.5t147 101t193.5 35.5t193 -35.5t146 -101t92.5 -158.5t32.5 -208q0 -116 -32.5 -209t-92.5 -158.5t-146 -101t-193 -35.5t-193.5 35.5t-147 101t-93 158.5t-32.5 209zM244 1128l217 255h162l218 -255h-118q-11 0 -22 4t-22 15l-118 125 q-5 4 -8.5 9t-8.5 10q-8 -11 -15 -18l-119 -126q-18 -19 -44 -19h-122zM256 489q0 -87 17.5 -155t53 -115t89 -71.5t125.5 -24.5q71 0 124 24.5t88.5 71.5t53 115t17.5 155t-17.5 155t-53 115t-88.5 72t-124 25q-72 0 -125.5 -25t-89 -72t-53 -115t-17.5 -155z" />
<glyph unicode="&#xf5;" horiz-adv-x="1080" d="M75 0zM75 490q0 115 32.5 208t93 158.5t147 101t193.5 35.5t193 -35.5t146 -101t92.5 -158.5t32.5 -208q0 -116 -32.5 -209t-92.5 -158.5t-146 -101t-193 -35.5t-193.5 35.5t-147 101t-93 158.5t-32.5 209zM256 489q0 -87 17.5 -155t53 -115t89 -71.5t125.5 -24.5 q71 0 124 24.5t88.5 71.5t53 115t17.5 155t-17.5 155t-53 115t-88.5 72t-124 25q-72 0 -125.5 -25t-89 -72t-53 -115t-17.5 -155zM264 1160q0 46 13 84.5t36 66t55 42.5t70 15q34 0 63.5 -14t55.5 -30.5t49 -30t45 -13.5q42 0 61.5 20t31.5 63h86q0 -46 -12.5 -84t-35 -65.5 t-54.5 -42.5t-71 -15q-33 0 -62.5 13.5t-55.5 30t-49.5 30.5t-45.5 14q-42 0 -65 -23t-31 -61h-84z" />
<glyph unicode="&#xf6;" horiz-adv-x="1080" d="M75 0zM75 490q0 115 32.5 208t93 158.5t147 101t193.5 35.5t193 -35.5t146 -101t92.5 -158.5t32.5 -208q0 -116 -32.5 -209t-92.5 -158.5t-146 -101t-193 -35.5t-193.5 35.5t-147 101t-93 158.5t-32.5 209zM245 1244q0 23 8.5 43t23.5 35t35 24t43 9q22 0 42.5 -9t36 -24 t24.5 -35t9 -43t-9 -43t-24.5 -35t-36 -23.5t-42.5 -8.5q-23 0 -43 8.5t-35 23.5t-23.5 35t-8.5 43zM256 489q0 -87 17.5 -155t53 -115t89 -71.5t125.5 -24.5q71 0 124 24.5t88.5 71.5t53 115t17.5 155t-17.5 155t-53 115t-88.5 72t-124 25q-72 0 -125.5 -25t-89 -72 t-53 -115t-17.5 -155zM615 1244q0 23 8.5 43t23.5 35t35 24t43 9q22 0 42.5 -9t36 -24t24.5 -35t9 -43t-9 -43t-24.5 -35t-36 -23.5t-42.5 -8.5q-23 0 -43 8.5t-35 23.5t-23.5 35t-8.5 43z" />
<glyph unicode="&#xf7;" d="M46 581v133h926v-133h-926zM386 303q0 25 9.5 47.5t26 39.5t38.5 26.5t48 9.5q25 0 47.5 -9.5t39.5 -26.5t26.5 -39.5t9.5 -47.5q0 -26 -9.5 -48t-26.5 -38.5t-39.5 -25.5t-47.5 -9q-26 0 -48 9t-38.5 25.5t-26 38.5t-9.5 48zM386 990q0 25 9.5 47.5t26 39.5t38.5 26.5 t48 9.5q25 0 47.5 -9.5t39.5 -26.5t26.5 -39.5t9.5 -47.5q0 -26 -9.5 -48t-26.5 -38.5t-39.5 -25.5t-47.5 -9q-26 0 -48 9t-38.5 25.5t-26 38.5t-9.5 48z" />
<glyph unicode="&#xf8;" horiz-adv-x="1084" d="M66 -74l140 191q-63 66 -97 160.5t-34 212.5q0 115 33 208t93.5 158.5t147 101t194.5 35.5q75 0 139.5 -17.5t118.5 -51.5l65 88q19 26 35.5 37t48.5 11h87l-152 -206q60 -66 92 -157.5t32 -206.5q0 -116 -32.5 -209t-93 -158.5t-147 -101t-193.5 -35.5q-73 0 -135.5 16 t-115.5 47l-51 -70q-21 -29 -50.5 -41t-58.5 -12h-66zM245 489q0 -153 55 -245l417 566q-70 52 -174 52q-72 0 -128 -26t-93.5 -74t-57 -117t-19.5 -156zM376 163q67 -45 167 -45q72 0 127 25.5t92.5 73.5t56.5 116.5t19 155.5q0 142 -49 234z" />
<glyph unicode="&#xf9;" horiz-adv-x="1076" d="M125 0zM125 355v623h176v-623q0 -110 49.5 -170.5t150.5 -60.5q75 0 139.5 35.5t119.5 97.5v721h176v-978h-106q-18 0 -30 8.5t-14 27.5l-16 104q-63 -70 -140.5 -112.5t-179.5 -42.5q-80 0 -140.5 26.5t-101.5 75t-62 117t-21 151.5zM311 1399h166q32 0 48 -10.5 t29 -32.5l143 -233h-100q-20 0 -33 6t-27 21z" />
<glyph unicode="&#xfa;" horiz-adv-x="1076" d="M125 0zM125 355v623h176v-623q0 -110 49.5 -170.5t150.5 -60.5q75 0 139.5 35.5t119.5 97.5v721h176v-978h-106q-18 0 -30 8.5t-14 27.5l-16 104q-63 -70 -140.5 -112.5t-179.5 -42.5q-80 0 -140.5 26.5t-101.5 75t-62 117t-21 151.5zM396 1123l143 233q13 22 29 32.5 t48 10.5h172l-226 -249q-14 -15 -27.5 -21t-33.5 -6h-105z" />
<glyph unicode="&#xfb;" horiz-adv-x="1076" d="M125 355v623h176v-623q0 -110 49.5 -170.5t150.5 -60.5q75 0 139.5 35.5t119.5 97.5v721h176v-978h-106q-18 0 -30 8.5t-14 27.5l-16 104q-63 -70 -140.5 -112.5t-179.5 -42.5q-80 0 -140.5 26.5t-101.5 75t-62 117t-21 151.5zM241 1128l217 255h162l218 -255h-118 q-11 0 -22 4t-22 15l-118 125q-5 4 -8.5 9t-8.5 10q-8 -11 -15 -18l-119 -126q-18 -19 -44 -19h-122z" />
<glyph unicode="&#xfc;" horiz-adv-x="1076" d="M125 0zM125 355v623h176v-623q0 -110 49.5 -170.5t150.5 -60.5q75 0 139.5 35.5t119.5 97.5v721h176v-978h-106q-18 0 -30 8.5t-14 27.5l-16 104q-63 -70 -140.5 -112.5t-179.5 -42.5q-80 0 -140.5 26.5t-101.5 75t-62 117t-21 151.5zM243 1244q0 23 8.5 43t23.5 35 t35 24t43 9q22 0 42.5 -9t36 -24t24.5 -35t9 -43t-9 -43t-24.5 -35t-36 -23.5t-42.5 -8.5q-23 0 -43 8.5t-35 23.5t-23.5 35t-8.5 43zM613 1244q0 23 8.5 43t23.5 35t35 24t43 9q22 0 42.5 -9t36 -24t24.5 -35t9 -43t-9 -43t-24.5 -35t-36 -23.5t-42.5 -8.5q-23 0 -43 8.5 t-35 23.5t-23.5 35t-8.5 43z" />
<glyph unicode="&#xfd;" horiz-adv-x="927" d="M11 0zM11 978h152q23 0 35 -11t18 -25l228 -612q8 -21 15.5 -42t12.5 -42q6 22 13.5 43.5t15.5 42.5l221 610q6 15 20 25.5t31 10.5h140l-504 -1266q-8 -20 -21.5 -31t-39.5 -11h-131l168 388zM348 1123l143 233q13 22 29 32.5t48 10.5h172l-226 -249q-14 -15 -27.5 -21 t-33.5 -6h-105z" />
<glyph unicode="&#xfe;" horiz-adv-x="1076" d="M144 -330v1752h176v-583q60 71 138 112.5t178 41.5q83 0 150.5 -32t115.5 -94.5t74 -155.5t26 -215q0 -108 -29 -201.5t-83 -162t-131.5 -107.5t-175.5 -39q-90 0 -152 33.5t-111 93.5v-443h-176zM320 236q46 -63 101 -88.5t123 -25.5q133 0 205 97t72 277 q0 95 -16.5 163t-47.5 111.5t-76.5 63.5t-102.5 20q-82 0 -144 -38t-114 -108v-472z" />
<glyph unicode="&#xff;" horiz-adv-x="927" d="M11 0zM11 978h152q23 0 35 -11t18 -25l228 -612q8 -21 15.5 -42t12.5 -42q6 22 13.5 43.5t15.5 42.5l221 610q6 15 20 25.5t31 10.5h140l-504 -1266q-8 -20 -21.5 -31t-39.5 -11h-131l168 388zM195 1244q0 23 8.5 43t23.5 35t35 24t43 9q22 0 42.5 -9t36 -24t24.5 -35 t9 -43t-9 -43t-24.5 -35t-36 -23.5t-42.5 -8.5q-23 0 -43 8.5t-35 23.5t-23.5 35t-8.5 43zM565 1244q0 23 8.5 43t23.5 35t35 24t43 9q22 0 42.5 -9t36 -24t24.5 -35t9 -43t-9 -43t-24.5 -35t-36 -23.5t-42.5 -8.5q-23 0 -43 8.5t-35 23.5t-23.5 35t-8.5 43z" />
<glyph unicode="&#x152;" horiz-adv-x="1775" d="M67 657q0 147 38 270.5t107 213t166 139t215 49.5q126 0 226.5 -56t169.5 -156v197h706v-148h-545v-431h438v-143h-438v-444h546l-1 -148h-706v197q-69 -100 -169.5 -155t-226.5 -55q-118 0 -215 49.5t-166 138t-107 211.5t-38 271zM253 657q0 -120 25 -216t71.5 -163 t113 -103t148.5 -36t148 36t112 103t71 163t25 216t-25 216t-71 163.5t-112 103.5t-148 36t-148.5 -36t-113 -103.5t-71.5 -163.5t-25 -216z" />
<glyph unicode="&#x153;" horiz-adv-x="1740" d="M79 490q0 115 32 208t91 158.5t142.5 101t185.5 35.5q133 0 228 -59t148 -166q25 51 61 92.5t82.5 71t103.5 45.5t124 16q82 0 152.5 -31t122 -89.5t81 -143t29.5 -192.5q0 -41 -8 -55t-33 -14h-629q4 -87 27.5 -151.5t62 -107.5t91.5 -64t118 -21q61 0 105.5 14.5 t77 32.5t55 32.5t39.5 14.5q19 0 34 -17l49 -64q-32 -39 -75.5 -67.5t-93 -47t-102.5 -27.5t-105 -9q-120 0 -216 56.5t-151 172.5q-53 -109 -149.5 -169t-233.5 -60q-101 0 -183 35.5t-140.5 101t-90.5 158.5t-32 209zM260 489q0 -173 69.5 -269.5t210.5 -96.5 q70 0 122.5 24.5t87 71.5t52 115t17.5 155t-17.5 155t-52 115t-87 72t-122.5 25q-71 0 -123.5 -25t-87 -72t-52 -115t-17.5 -155zM994 577h512q0 62 -16 115t-46 91.5t-73.5 60t-99.5 21.5q-62 0 -110 -20t-83 -57.5t-56 -90.5t-28 -120z" />
<glyph unicode="&#x178;" horiz-adv-x="998" d="M0 0zM0 1314h160q23 0 37.5 -11.5t24.5 -30.5l225 -507q17 -31 30 -58.5t23 -54.5q10 27 22.5 54.5t29.5 57.5l223 508q8 15 23 28.5t38 13.5h162l-408 -789v-525h-182v523zM182 1531q0 23 8.5 43t23.5 35t35 24t43 9q22 0 42.5 -9t36 -24t24.5 -35t9 -43t-9 -43 t-24.5 -35t-36 -23.5t-42.5 -8.5q-23 0 -43 8.5t-35 23.5t-23.5 35t-8.5 43zM586 1531q0 23 8.5 43t23.5 35t35 24t43 9q22 0 42.5 -9t36 -24t24.5 -35t9 -43t-9 -43t-24.5 -35t-36 -23.5t-42.5 -8.5q-23 0 -43 8.5t-35 23.5t-23.5 35t-8.5 43z" />
<glyph unicode="&#x2c6;" horiz-adv-x="809" d="M106 1128l217 255h162l218 -255h-118q-11 0 -22 4t-22 15l-118 125q-5 4 -8.5 9t-7.5 10l-16 -18l-119 -126q-18 -19 -44 -19h-122z" />
<glyph unicode="&#x2dc;" horiz-adv-x="922" d="M181 1160q0 46 13 84.5t36 66t55 42.5t70 15q34 0 63.5 -14t55.5 -30.5t49 -30t45 -13.5q42 0 61.5 20t31.5 63h86q0 -46 -12.5 -84t-35 -65.5t-54.5 -42.5t-71 -15q-33 0 -62.5 13.5t-55.5 30t-49.5 30.5t-45.5 14q-42 0 -65 -23t-31 -61h-84z" />
<glyph unicode="&#x2000;" horiz-adv-x="866" />
<glyph unicode="&#x2001;" horiz-adv-x="1733" />
<glyph unicode="&#x2002;" horiz-adv-x="866" />
<glyph unicode="&#x2003;" horiz-adv-x="1733" />
<glyph unicode="&#x2004;" horiz-adv-x="577" />
<glyph unicode="&#x2005;" horiz-adv-x="433" />
<glyph unicode="&#x2006;" horiz-adv-x="288" />
<glyph unicode="&#x2007;" horiz-adv-x="288" />
<glyph unicode="&#x2008;" horiz-adv-x="216" />
<glyph unicode="&#x2009;" horiz-adv-x="346" />
<glyph unicode="&#x200a;" horiz-adv-x="96" />
<glyph unicode="&#x2010;" horiz-adv-x="627" d="M75 504v149h478v-149h-478z" />
<glyph unicode="&#x2011;" horiz-adv-x="627" d="M75 504v149h478v-149h-478z" />
<glyph unicode="&#x2012;" horiz-adv-x="627" d="M75 504v149h478v-149h-478z" />
<glyph unicode="&#x2013;" d="M144 506v128h732v-128h-732z" />
<glyph unicode="&#x2014;" horiz-adv-x="1854" d="M175 506v128h1504v-128h-1504z" />
<glyph unicode="&#x2018;" horiz-adv-x="511" d="M175.5 1211.5q11.5 74.5 48.5 143t99 122.5l54 -34q15 -9 13 -23t-10 -23q-25 -30 -43 -74t-23 -94.5t5 -104.5t40 -105q13 -21 7.5 -37.5t-24.5 -23.5l-108 -42q-41 69 -55.5 145t-3 150.5z" />
<glyph unicode="&#x2019;" horiz-adv-x="511" d="M151.5 940q1.5 14 9.5 23q25 30 43 74t23 94.5t-5 104.5t-40 105q-13 21 -7.5 37t24.5 23l108 43q41 -69 55.5 -145t3 -150.5t-48.5 -143t-98 -122.5l-54 34q-15 9 -13.5 23z" />
<glyph unicode="&#x201a;" horiz-adv-x="511" d="M150 0zM151.5 -250q1.5 14 9.5 23q25 30 43 74t23 94.5t-5 104.5t-40 105q-13 21 -7.5 37t24.5 23l108 43q41 -69 55.5 -145t3 -150.5t-48.5 -143t-98 -122.5l-54 34q-15 9 -13.5 23z" />
<glyph unicode="&#x201c;" horiz-adv-x="857" d="M183 916zM194.5 1211.5q11.5 74.5 48.5 143t99 122.5l54 -34q15 -9 13 -23t-10 -23q-25 -30 -43 -74t-23 -94.5t5 -104.5t40 -105q13 -21 7.5 -37.5t-24.5 -23.5l-108 -42q-41 69 -55.5 145t-3 150.5zM521.5 1211.5q11.5 74.5 48.5 143t99 122.5l54 -34q15 -9 13 -23 t-10 -23q-25 -30 -43 -74t-23 -94.5t5 -104.5t40 -105q13 -21 7.5 -37.5t-24.5 -23.5l-108 -42q-41 69 -55.5 145t-3 150.5z" />
<glyph unicode="&#x201d;" horiz-adv-x="857" d="M168 883zM169.5 940q1.5 14 9.5 23q25 30 43 74t23 94.5t-5 104.5t-40 105q-13 21 -7.5 37t24.5 23l108 43q41 -69 55.5 -145t3 -150.5t-48.5 -143t-98 -122.5l-54 34q-15 9 -13.5 23zM496.5 940q1.5 14 9.5 23q25 30 43 74t23 94.5t-5 104.5t-40 105q-13 21 -7.5 37 t24.5 23l108 43q41 -69 55.5 -145t3 -150.5t-48.5 -143t-98 -122.5l-54 34q-15 9 -13.5 23z" />
<glyph unicode="&#x201e;" horiz-adv-x="857" d="M168 0zM169.5 -250q1.5 14 9.5 23q25 30 43 74t23 94.5t-5 104.5t-40 105q-13 21 -7.5 37t24.5 23l108 43q41 -69 55.5 -145t3 -150.5t-48.5 -143t-98 -122.5l-54 34q-15 9 -13.5 23zM497.5 -250q1.5 14 9.5 23q25 30 43 74t23 94.5t-5 104.5t-40 105q-13 21 -7.5 37 t24.5 23l108 43q41 -69 55.5 -145t3 -150.5t-48.5 -143t-98 -122.5l-54 34q-15 9 -13.5 23z" />
<glyph unicode="&#x2022;" d="M148 574q0 75 28.5 141.5t77.5 115.5t114.5 77.5t139.5 28.5q75 0 141 -28.5t115.5 -77.5t78 -115.5t28.5 -141.5q0 -74 -28.5 -140t-78 -115t-115.5 -77.5t-141 -28.5q-74 0 -139.5 28.5t-114.5 77.5t-77.5 115t-28.5 140z" />
<glyph unicode="&#x2026;" horiz-adv-x="1414" d="M69 0zM69 107q0 26 10 48.5t26.5 39.5t38.5 27t47 10t47.5 -10t40 -27t27.5 -39.5t10 -48.5q0 -25 -10 -47.5t-27.5 -39t-40 -26.5t-47.5 -10t-47 10t-38.5 26.5t-26.5 39t-10 47.5zM575 107q0 26 10 48.5t26.5 39.5t38.5 27t47 10t47.5 -10t40 -27t27.5 -39.5t10 -48.5 q0 -25 -10 -47.5t-27.5 -39t-40 -26.5t-47.5 -10t-47 10t-38.5 26.5t-26.5 39t-10 47.5zM1096 107q0 26 10 48.5t26.5 39.5t38.5 27t47 10t47.5 -10t40 -27t27.5 -39.5t10 -48.5q0 -25 -10 -47.5t-27.5 -39t-40 -26.5t-47.5 -10t-47 10t-38.5 26.5t-26.5 39t-10 47.5z" />
<glyph unicode="&#x202f;" horiz-adv-x="346" />
<glyph unicode="&#x2039;" horiz-adv-x="694" d="M174 500v23l241 375l57 -27q23 -11 27.5 -30.5t-9.5 -42.5l-152 -252q-12 -22 -27 -35q14 -13 27 -34l151 -252q14 -23 10 -42.5t-27 -30.5l-57 -27z" />
<glyph unicode="&#x203a;" horiz-adv-x="694" d="M194.5 182.5q-4.5 19.5 9.5 42.5l152 251q14 24 27 35q-13 12 -26 35l-152 252q-14 23 -10 42.5t27 30.5l57 27l241 -375v-23l-241 -375l-57 27q-23 11 -27.5 30.5z" />
<glyph unicode="&#x205f;" horiz-adv-x="433" />
<glyph unicode="&#x20ac;" horiz-adv-x="1038" d="M32 402v81h119q-1 13 -1.5 26.5t-0.5 27.5q0 17 0.5 33t1.5 33h-119v82h131q18 93 60.5 167.5t106.5 127t148.5 80.5t186.5 28q118 0 201 -36.5t149 -102.5l-45 -51q-10 -11 -24 -20t-30 -9q-15 0 -35 12t-48.5 27t-68.5 27t-96 12q-133 0 -216 -67t-113 -195h472v-35 q0 -18 -14.5 -32.5t-36.5 -14.5h-434q-2 -16 -2 -32.5v-33.5q0 -14 0.5 -27.5t1.5 -26.5h400v-34q0 -18 -14.5 -32.5t-36.5 -14.5h-340q26 -136 105.5 -205t208.5 -69q67 0 113.5 16t79 35t53 35t36.5 16q14 0 24.5 -7t22.5 -21l45 -53q-63 -77 -156.5 -120t-221.5 -43 q-103 0 -186 29t-144 83t-100.5 131t-55.5 173h-127z" />
<glyph unicode="&#x2122;" horiz-adv-x="1444" d="M87 1280v103h470v-103h-173v-468h-124v468h-173zM648 812v571h104q17 0 24.5 -3.5t15.5 -17.5l162 -290q13 -25 22 -50q8 28 22 52l161 289q8 14 16 17t24 3h104v-571h-108v349l9 75l-175 -325q-14 -27 -43 -27h-18q-29 0 -43 27l-176 322l8 -72v-349h-109z" />
<glyph unicode="&#x25fc;" horiz-adv-x="980" d="M0 0v980h980v-980h-980z" />
</font>
</defs>
</svg>
